<svg width="64" height="92" viewBox="0 0 64 92" fill="none" xmlns="http://www.w3.org/2000/svg">
<path d="M22.636 37.1517C23.0298 37.1534 23.4237 37.1553 23.8175 37.157C24.0332 37.2295 24.1694 37.3801 24.2519 37.5851C25.2072 38.6359 26.2449 39.5918 27.4413 40.3723C27.6792 40.4871 27.8312 40.6719 27.9095 40.92C28.1268 42.0955 27.9573 43.2835 28.0359 44.4632C28.0203 44.7218 28.0975 44.9774 28.072 45.2363C27.7784 46.8426 28.0646 48.2199 29.5843 49.1511C29.884 49.3349 30.077 49.6883 30.3847 49.8634C32.2204 50.9083 32.4225 52.4148 31.9827 54.3355C31.0452 58.4295 30.4413 62.5909 29.6897 66.7227C29.4572 68.0008 29.6328 68.205 30.9285 68.5065C31.9451 68.7432 32.9166 68.5372 33.896 68.3385C34.6822 68.179 35.4163 68.1498 35.9067 68.9474C36.4083 69.7629 36.5135 70.5424 35.8725 71.3655C35.0423 72.4317 34.2767 73.547 33.5099 74.6592C32.9209 75.5132 32.9921 75.6415 34.0322 75.8714C34.6619 76.0105 35.3059 75.9891 35.9401 76.0672C36.3941 76.1233 36.8606 76.2616 36.8782 76.8039C36.8961 77.3542 36.4345 77.5243 35.9809 77.5751C34.1237 77.7831 32.2873 78.3044 30.3873 77.8993C29.8143 77.7771 29.2131 77.8844 28.6254 77.8261C28.7804 77.9062 28.5925 77.8355 28.7375 77.8977C30.9956 78.8654 33.3169 78.826 35.6698 78.3419C35.9429 78.2857 36.2219 78.2464 36.504 78.259C36.935 78.2785 37.2898 78.4394 37.4733 78.8422C37.6677 79.2687 37.3194 79.4978 37.08 79.7467C36.0296 80.8396 34.8555 81.8016 33.6672 82.7353C32.7453 83.4598 32.2706 84.2878 32.3099 85.474C32.3755 87.4526 32.2952 89.4341 32.3361 91.4142C32.3712 91.6909 32.2679 91.8913 32.0015 91.9994C30.9438 91.9511 29.8829 91.9216 28.8799 91.5221C28.194 90.9672 27.4409 90.596 26.5606 90.377C24.4366 89.8487 22.6285 88.6228 20.8843 87.4055C18.8064 85.9551 16.8493 84.3101 15.3171 82.2487C15.2171 81.7366 15.5927 81.5241 15.9514 81.3646C17.3783 80.73 18.583 79.7149 20.0312 79.1055C21.366 78.5437 21.417 78.2064 20.5964 76.9509C18.271 73.3929 15.882 69.8763 13.5656 66.3124C12.7847 65.1111 12.8767 64.5058 14.0742 63.7628C15.5317 62.8585 16.9552 61.9015 18.4279 61.021C19.7257 60.2451 19.7971 60.0439 19.1153 58.6523C17.788 55.9437 16.3634 53.282 15.0785 50.5532C14.3177 48.9376 13.5365 47.3325 12.729 45.7398C12.4893 45.2667 12.3686 44.7763 12.4478 44.2461C12.5511 42.486 12.4491 40.7259 12.4505 38.9663C12.4508 38.6053 12.6158 38.1601 12.1367 37.9287C11.8528 37.8547 11.5554 37.8368 11.2859 37.7114C10.8017 37.3375 10.2224 37.4653 9.67731 37.4077C8.51321 37.2848 7.87797 36.487 8.14342 35.3689C8.2947 34.7322 8.20175 34.0146 8.68882 33.4706C9.53336 32.4106 10.4824 31.6706 12.0068 31.7805C12.7077 31.8312 13.3596 31.1325 14.152 31.1221C15.4921 30.9518 16.8123 30.6552 18.1597 30.5453C19.1703 30.4628 19.3915 30.7222 19.3199 31.7439C19.2266 33.0761 18.9322 34.3938 19.0253 35.7395C19.0521 36.1266 18.9559 36.5338 19.2291 36.877C19.6447 37.3716 20.2319 36.9613 20.7055 37.1512C21.3491 37.4661 21.9926 37.4653 22.636 37.1517Z" fill="#A6211E"/>
<path d="M42.7952 37.1543C43.2784 37.1546 43.7614 37.1549 44.2446 37.1552C44.5328 37.5704 44.6043 38.0846 44.511 38.5152C44.1604 40.136 44.5595 41.732 44.5667 43.3378C44.5734 44.8109 44.8925 45.214 46.3777 45.0065C47.765 44.8126 49.166 45.0686 50.5354 44.7321C51.3129 44.5411 51.8866 45.0951 52.5411 45.3462C54.121 46.3278 55.3177 47.7281 56.5242 49.0886C58.1116 50.8783 59.9361 52.4336 61.5236 54.2106C62.2454 55.0184 62.9454 54.173 63.6107 54.4394C63.8487 55.7546 63.5851 57.0235 63.2471 58.2855C62.3656 59.2387 62.7593 60.5216 62.3713 61.6244C61.5903 63.8435 61.066 66.1559 59.2581 67.862C58.6364 68.277 58.07 68.7787 57.2151 68.6921C56.7056 68.6405 56.4408 69.0277 56.3261 69.4868C55.8441 71.4172 54.8421 73.1401 54.0993 74.9661C53.5547 76.3048 52.6077 77.3864 51.7209 78.4977C51.1552 79.2066 50.4708 79.824 50.1537 80.7046C49.982 80.8777 49.7802 80.992 49.5325 81.0153C48.4021 80.9166 47.7377 80.018 46.9138 79.4362C45.0965 78.153 43.3168 76.8173 41.4388 75.62C40.0539 74.7369 39.9567 74.1255 41.0357 72.8808C42.367 71.3452 43.324 69.5496 44.5374 67.9288C46.1531 65.7705 47.5688 63.4674 49.2435 61.3513C49.8577 60.5752 49.9078 60.032 49.0851 59.3731C47.2541 57.9067 45.5056 56.3389 43.6615 54.8882C40.2239 52.1841 36.8741 49.3759 33.5222 46.5703C33.1541 46.2623 32.5741 45.9879 33.0343 45.3346C33.872 44.9216 34.7685 45.1427 35.6364 45.1132C36.3186 45.0899 36.5762 44.8242 36.7375 44.1554C36.9895 43.1107 36.7125 42.1148 36.6944 41.0978C36.6796 40.2661 36.6851 39.4341 36.7024 38.602C36.7205 37.7287 37.0837 37.3021 38.0254 37.3421C39.1839 37.3913 40.3463 37.3544 41.507 37.3527C41.9465 37.3521 42.3908 37.3799 42.7952 37.1543Z" fill="#D03151"/>
<path d="M12.7792 44.49C12.5223 44.9143 12.8129 45.2395 12.9836 45.5844C15.0734 49.8044 17.1606 54.0256 19.2562 58.2427C20.2351 60.213 20.2462 60.2151 18.4358 61.3568C17.0273 62.2451 15.6088 63.1178 14.1938 63.9959C13.1488 64.6443 13.0997 65.0424 13.7795 66.063C16.2517 69.7743 18.7086 73.4958 21.1478 77.2283C21.8456 78.2959 21.702 78.8361 20.3317 79.331C18.7313 79.909 17.495 81.0908 15.9271 81.6901C15.6667 81.7896 15.412 81.9337 15.4369 82.2833C15.4346 82.7017 15.2053 82.6792 14.9187 82.5445C14.8391 82.4633 14.7594 82.3821 14.6799 82.3009C14.4966 81.4759 14.0936 80.7709 13.5 80.1674C12.7756 79.4309 12.0642 78.6875 11.9443 77.5896C11.9228 77.3924 11.8166 77.2098 11.6664 77.0776C9.6097 75.2703 8.8812 72.7462 7.93871 70.3357C7.7553 69.8665 7.72036 69.3222 7.27759 68.9751C7.10961 68.884 6.94164 68.7929 6.77367 68.7018C5.06915 68.4302 4.29589 67.0138 3.29289 65.8939C3.00748 65.5752 2.77837 65.2063 2.42917 64.9426C1.34913 62.5027 0.989943 59.891 0.511449 57.3002C0.241166 55.8369 0.428321 54.3506 0.0839551 52.8914C-0.129714 51.986 0.0912854 51.0355 0.445009 50.1629C0.883109 49.0825 2.12457 48.6774 3.58158 49.0926C4.1315 49.2493 4.86172 49.6932 5.18768 49.4928C5.63982 49.2149 5.00879 48.5267 5.08802 47.9787C5.25755 46.8053 4.64415 45.6669 4.89853 44.484C5.22574 43.296 5.22527 42.108 4.89868 40.9198C4.89868 40.6019 4.89853 40.284 4.89853 39.9662C5.19205 39.6716 5.2011 39.2414 5.40884 38.9088C5.68723 38.4627 6.11129 38.2705 6.63065 38.3485C7.18104 38.4312 7.29209 38.868 7.31736 39.3171C7.37725 40.38 7.33498 41.4448 7.34371 42.509C7.35728 44.1872 8.1711 44.7287 9.79732 44.1369C10.5884 43.8097 11.4048 44.1438 12.2059 44.0449C12.4906 44.0745 12.6461 44.2683 12.7792 44.49Z" fill="#7A2217"/>
<path d="M63.6105 54.4396C62.49 55.3104 61.7492 54.8239 60.83 53.9443C58.0267 51.2621 55.6075 48.2122 52.665 45.6693C52.1392 45.2582 51.3164 45.0146 51.7406 44.0661C52.3242 42.1976 51.696 40.2978 51.8852 38.4177C51.9398 37.8747 51.5842 37.7525 51.1077 37.8533C49.4713 37.667 47.8305 37.7168 46.1914 37.7045C45.7142 37.7009 45.226 37.7317 44.7925 37.4635C44.6618 37.3574 44.6401 37.2323 44.7263 37.0889C44.8218 35.1146 44.5476 33.1611 44.372 31.2033C44.3045 30.4498 44.7159 30.152 45.3285 30.238C48.3065 30.656 51.3488 30.6936 54.2383 31.6463C55.1181 31.9365 55.7685 32.2641 55.8655 33.4745C55.9596 34.6491 56.2303 35.8587 56.443 37.0469C56.5797 37.8101 56.9103 38.0772 57.6047 38.0606C58.7307 38.0335 59.1487 38.6109 59.1401 39.6747C59.1161 42.6319 59.2203 45.5921 58.8904 48.5403C58.785 49.4822 59.1702 49.6741 59.9976 49.3128C60.3201 49.172 60.6698 49.0621 61.0177 49.0137C62.6011 48.794 63.4249 49.3128 63.7781 50.8688C64.0481 52.056 64.1535 53.2724 63.6105 54.4396Z" fill="#ED718F"/>
<path d="M27.9521 29.2701C27.9975 27.682 27.6227 26.0737 28.1846 24.5104C28.4842 24.0583 28.849 23.7692 29.4532 23.7956C31.2022 23.8722 32.9537 23.7377 34.7047 23.847C35.2039 23.8782 35.6403 23.9862 36.037 24.2746C36.0383 24.8301 36.0394 25.3855 36.0406 25.9411C35.6557 26.6861 35.826 27.4879 35.8599 28.2553C35.9528 30.3695 35.9974 32.4862 36.1103 34.5973C36.1802 35.9037 35.8106 36.7877 34.597 37.3044C32.5488 37.5659 30.5013 37.6595 28.4574 37.2611C27.8895 36.8095 27.9505 36.1665 27.9126 35.5444C27.796 33.6323 28.1243 31.734 28.0864 29.8244C28.0822 29.6225 28.065 29.439 27.9521 29.2701Z" fill="#CB3247"/>
<path d="M13.9847 31.4076C12.9463 31.5647 12.1025 32.3003 10.9071 32.1459C10.0934 32.0408 9.59385 33.0528 8.93974 33.5466C8.71297 33.3887 8.43536 33.3023 8.25928 33.073C8.98575 31.402 8.81684 29.4768 9.7587 27.8701C10.0229 27.4192 9.89595 27.1178 9.46549 26.9191C8.97983 26.6949 9.42931 26.4128 9.48858 26.2971C9.61818 26.0444 9.83403 25.6616 10.1789 25.7368C10.6552 25.8407 10.1817 26.3679 10.4418 26.6243C11.3433 26.3058 12.2171 25.9812 13.1018 25.6886C14.1784 25.3324 14.5653 25.6227 14.1815 26.6602C13.7768 27.7537 13.6827 28.9139 13.2632 29.9907C12.9612 30.7657 13.336 30.8747 13.9845 30.7348C14.1849 30.9588 14.1728 31.183 13.9847 31.4076Z" fill="#971F1F"/>
<path d="M27.9132 17.1821C29.4372 17.1824 30.9615 17.1827 32.4856 17.1831C33.2178 17.5524 33.5751 18.2292 33.8073 18.939C34.3506 20.5985 33.9008 21.1807 32.1602 21.1828C30.8061 21.1845 29.4518 21.1655 28.0981 21.1888C27.2408 21.2037 26.8947 20.8755 26.9071 19.9925C26.9222 18.9194 27.1449 17.9679 27.9132 17.1821Z" fill="#CB3247"/>
<path d="M49.6207 25.1265C51.7046 25.2756 53.8179 27.0371 54.3254 28.9117C55.1557 31.9784 55.0729 31.4057 52.3114 30.8932C50.8256 30.6175 49.9707 29.9932 49.9459 28.3529C49.9334 27.5267 49.5365 26.6965 49.2566 25.8874C49.0694 25.347 49.3436 25.2132 49.6207 25.1265Z" fill="#E97090"/>
<path d="M36.3141 15.0058C35.5944 15.0058 34.8746 15.0118 34.1548 15.0039C33.611 14.998 32.9837 15.1432 32.9474 14.2705C32.9151 13.4952 33.0785 12.7317 33.9355 12.6688C35.4864 12.555 37.059 12.5437 38.6082 12.6663C39.5387 12.74 39.6333 13.6877 39.6509 14.4008C39.67 15.1742 38.9619 14.9899 38.4734 15.0013C37.754 15.0181 37.0339 15.0058 36.3141 15.0058Z" fill="#BC314C"/>
<path d="M25.1317 23.0846C27.673 23.0848 27.4074 22.8365 27.444 25.1716C27.4595 26.1587 27.0844 27.0949 27.1822 28.0965C27.24 28.6884 26.7929 29.0236 26.1895 29.0256C24.2518 29.0319 22.3342 29.2739 20.4095 29.4474C19.6632 29.5147 19.1443 29.1335 19.2677 28.265C19.437 27.0726 19.5674 25.8729 19.7947 24.6914C19.9946 23.6514 20.9171 23.3814 21.7704 23.3653C22.9646 23.3429 24.1159 22.8825 25.1317 23.0846Z" fill="#BA2F59"/>
<path d="M38.478 23.6095C38.478 23.1653 38.4782 22.9675 38.478 22.7699C38.4757 20.9219 38.6088 20.843 40.4745 21.0864C41.7942 21.2585 43.1302 21.4012 44.4576 21.3909C45.3068 21.3842 45.7427 21.7685 45.9 22.4382C46.2088 23.7531 46.4477 25.0888 46.6219 26.4278C46.6988 27.0185 46.2627 27.3879 45.65 27.3613C43.6287 27.2733 41.6147 27.0473 39.585 27.1064C39.1047 27.1204 38.748 26.7588 38.7383 26.2802C38.7183 25.2997 38.2339 24.3624 38.478 23.6095Z" fill="#B7304E"/>
<path d="M49.532 80.8689C49.6905 80.7869 49.8488 80.705 50.0072 80.623C50.2179 80.6251 50.4066 80.6708 50.5182 80.8721C47.5039 84.641 43.9763 87.8366 39.6245 90.0162C37.2521 91.2044 34.713 91.9824 32.0015 91.9999C32.0757 91.8577 32.1499 91.7155 32.2242 91.5733C32.36 91.1578 32.7201 91.0928 33.082 91.0529C37.3781 90.5794 40.7766 88.3892 44.0959 85.8046C46.0533 84.2806 47.5335 82.3059 49.532 80.8689Z" fill="#B2304F"/>
<path d="M20.4437 19.0364C20.7048 19.0753 21.0839 19.1355 20.7626 19.9454C20.5142 20.5715 20.3025 21.2456 20.1689 21.9377C20.0502 22.5524 19.6579 23.0523 18.7842 23.128C17.5141 23.2379 16.2592 23.5817 15.016 23.8957C14.6888 23.9783 14.4285 24.1191 14.1593 23.848C13.8837 23.5704 14.021 23.3185 14.1556 23.0003C15.1776 20.5837 17.5528 18.9845 20.4437 19.0364Z" fill="#901E21"/>
<path d="M21.5828 16.8934C20.893 16.9146 20.4911 16.9702 20.3015 16.5874C20.1154 16.2122 20.578 16.0754 20.6837 15.8012C21.102 14.7154 22.1682 14.7702 23.0333 14.5488C23.9683 14.3094 24.9471 14.2412 25.9032 14.0775C26.3867 13.9948 26.8552 14.2914 26.8023 14.6078C26.6934 15.2583 26.9639 16.3346 25.922 16.3844C24.3468 16.4596 22.8045 16.7115 21.5828 16.8934Z" fill="#C03259"/>
<path d="M4.55738 36.5928C4.75529 35.6111 4.93044 34.6241 5.15768 33.6492C5.38725 32.6641 6.24193 32.3119 7.06198 31.9854C7.6183 31.764 7.82511 32.2039 7.71266 32.6051C7.32478 33.989 7.31714 35.4307 6.9996 36.8168C6.79232 37.722 5.89398 37.7958 5.18263 37.7918C4.44758 37.7875 4.44352 37.1755 4.55738 36.5928Z" fill="#6A1E17"/>
<path d="M59.2666 36.1597C58.1456 36.2659 57.824 35.4425 57.736 34.7121C57.6055 33.6288 57.4453 32.5577 57.2383 31.4875C57.1784 31.1779 57.0429 30.7397 57.4267 30.5229C57.7143 30.3605 58.0197 30.5255 58.3241 30.6546C59.0269 30.9522 59.4245 31.412 59.674 32.1568C59.9987 33.1258 60.0628 34.132 60.3091 35.1085C60.5164 35.9301 60.038 36.2706 59.2666 36.1597Z" fill="#E57191"/>
<path d="M37.1325 16.1665C38.526 16.5148 40.012 16.4642 41.3661 17.0367C41.6476 17.1558 41.9751 17.3297 42.117 17.5725C42.3282 17.9337 42.9045 18.2359 42.5591 18.7641C42.2267 19.2723 41.7516 18.975 41.2962 18.9099C40.2857 18.7653 39.2887 18.5473 38.2499 18.5455C37.4436 18.5441 36.6309 18.4306 36.2808 17.418C35.9695 16.5179 36.3871 16.2968 37.1325 16.1665Z" fill="#E57293"/>
<path d="M42.7953 37.1544C42.5432 37.6343 42.0906 37.5928 41.6494 37.5918C40.4137 37.589 39.1776 37.6148 37.9428 37.5812C37.2814 37.5631 36.9853 37.7882 37.0342 38.4647C37.1355 39.8733 36.9294 41.2837 37.2154 42.7039C37.3534 43.3896 37.0785 44.1716 36.923 44.8956C36.8076 45.4331 36.3273 45.408 35.8727 45.448C34.9015 45.5333 33.8945 45.1811 32.9574 45.6738C31.4221 45.9647 29.8847 45.8067 28.3497 45.6792C28.1207 45.6602 27.8919 45.5222 27.9167 45.2132C27.8475 45.0503 27.7782 44.8872 27.709 44.7243C28.4366 44.3655 29.1959 44.6572 29.938 44.6352C31.5313 44.5883 33.1275 44.5993 34.7214 44.6274C35.7381 44.6453 36.172 44.1878 36.1934 43.2145C36.2072 42.5802 36.1626 41.9572 36.085 41.328C35.9151 39.9529 35.8766 38.5793 36.3946 37.2512C36.4471 37.209 36.5003 37.1675 36.5535 37.126C38.6339 37.1355 40.7146 37.145 42.7953 37.1544Z" fill="#B62F58"/>
<path d="M14.9187 82.5445C15.1269 82.5265 15.3231 82.4853 15.4368 82.2832C16.8668 83.3866 17.9954 84.8045 19.4217 85.9265C21.6249 87.6595 23.9176 89.2462 26.6087 90.0657C27.4102 90.3096 28.0558 90.7182 28.7768 91.0424C29.0407 91.1612 28.9616 91.3383 28.8799 91.5225C26.6388 91.2372 24.6576 90.2386 22.7707 89.1256C19.7969 87.3716 17.2018 85.1294 14.9187 82.5445Z" fill="#8B1C22"/>
<path d="M50.518 80.872C50.3121 80.8605 50.1163 80.8289 50.0071 80.6229C50.1223 79.9318 50.428 79.3981 50.9672 78.8837C52.7622 77.1711 53.8414 74.9875 54.786 72.7412C55.2049 71.7448 55.6866 70.7537 55.9309 69.712C56.1367 68.8336 56.6124 68.5137 57.4041 68.5056C58.0961 68.4987 58.4837 67.8483 59.1323 67.7827C59.2771 67.809 59.3682 67.8916 59.4022 68.0342C58.9853 68.6119 58.294 69.0207 57.7129 68.9165C56.7065 68.7359 56.6558 69.3899 56.5161 69.9395C55.4591 74.0946 53.2007 77.5956 50.518 80.872Z" fill="#BB2F58"/>
<path d="M7.2773 68.9751C7.60794 68.9786 7.86855 69.0043 7.98521 69.4263C8.54106 71.4363 9.33975 73.3516 10.4132 75.1481C10.7542 75.7188 11.039 76.3331 11.6971 76.6568C12.022 76.8167 12.3024 77.0929 12.2878 77.4883C12.2441 78.6624 13.1108 79.2954 13.7922 80.0391C14.3819 80.6829 14.9817 81.3169 14.6799 82.301C11.2531 78.6021 8.84909 74.321 7.29477 69.5592C7.23643 69.3812 7.28073 69.1706 7.2773 68.9751Z" fill="#641D16"/>
<path d="M5.72046 24.9674C6.09259 23.4172 6.98969 22.3648 8.08455 21.4985C8.74193 20.9785 9.54545 20.6306 10.3109 20.2616C10.4557 20.1918 10.6406 19.9038 10.915 20.1583C11.2136 20.4353 10.9642 20.6121 10.8958 20.8667C10.3452 22.9141 8.99365 24.077 6.93775 24.5192C6.59978 24.5919 6.28193 24.7573 5.72046 24.9674Z" fill="#681F16"/>
<path d="M53.1472 24.4017C51.394 24.6202 49.4334 23.6253 48.7469 22.2312C48.6428 22.0198 48.5093 21.8163 48.4454 21.5933C48.3078 21.1137 47.5417 20.6749 48.1021 20.1702C48.5627 19.7554 49.0555 20.3576 49.4585 20.5744C51.0787 21.4459 52.4379 22.5979 53.1472 24.4017Z" fill="#E37394"/>
<path d="M51.9087 44.2615C51.5681 45.0427 52.5323 45.1373 52.6648 45.6694C50.7016 44.5687 48.6315 45.3618 46.6071 45.3259C45.9435 45.3141 45.2789 45.2392 44.6195 45.156C44.2599 45.1106 44.2491 44.7929 44.2483 44.5126C44.2413 42.0602 43.8896 39.6079 44.2444 37.1553C44.4051 37.1332 44.5657 37.1111 44.7265 37.0889C44.7264 37.1689 44.7262 37.2488 44.7259 37.329C45.6529 39.0713 45.2777 40.947 45.2512 42.7744C45.2306 44.2005 45.4315 44.5251 46.8127 44.3238C48.3932 44.0932 49.9829 44.1984 51.5636 44.0588C51.7012 44.0894 51.8158 44.1575 51.9087 44.2615Z" fill="#BC3059"/>
<path d="M41.8309 5.49894C40.3717 5.20387 39.0602 4.99835 37.785 4.65912C36.9804 4.44511 36.897 3.66783 37.0676 3.0238C37.2604 2.29638 37.8446 2.67375 38.313 2.79049C39.3278 3.0434 40.3625 3.21464 41.322 3.66767C41.7739 3.88106 42.0812 4.17845 42.2754 4.62994C42.5762 5.32924 42.4493 5.52025 41.8309 5.49894Z" fill="#BC304B"/>
<path d="M32.5078 9.049C32.9045 9.31165 32.667 9.683 32.6764 10.0122C32.4752 11.0137 31.8296 11.3026 30.8597 11.2102C30.1482 11.1426 29.4244 11.215 28.7073 11.1902C28.2185 11.1732 27.5483 11.3294 27.5354 10.5546C27.5237 9.85655 27.497 8.91606 28.3386 8.75995C29.7187 8.50394 31.1737 8.2186 32.5078 9.049Z" fill="#782218"/>
<path d="M27.8921 0.0186209C28.9644 -0.0108708 29.8729 0.380242 30.8372 0.278951C31.2447 0.23618 31.5925 0.520752 31.4783 0.923909C31.3118 1.5122 31.0891 2.21197 30.2665 2.14156C28.9349 2.02746 27.6059 1.86209 26.2848 1.66105C25.7974 1.58678 25.6081 1.28074 26.0148 0.829103C26.5524 0.231857 27.1933 -0.0822068 27.8921 0.0186209Z" fill="#E17292"/>
<path d="M27.9131 17.182C28.0991 18.1758 26.9717 18.7475 27.1384 19.829C27.2683 20.6719 27.4191 21.0119 28.3242 20.9645C29.6397 20.8955 30.9617 20.9477 32.2808 20.9461C33.7015 20.9446 34.1244 20.2606 33.4856 18.9333C33.195 18.3296 32.8214 17.7652 32.4854 17.1829C33.5921 16.9671 33.9878 17.6577 34.1397 18.5363C34.2646 19.2589 34.1149 19.9978 34.3262 20.7425C34.4902 21.3199 33.8432 21.3985 33.4544 21.4055C31.4668 21.4412 29.4781 21.4152 27.4899 21.4311C27.1275 21.4341 26.8828 21.2826 26.6789 21.0298C26.2887 20.5462 26.7376 17.7232 27.2616 17.3644C27.4528 17.2337 27.6492 17.0778 27.9131 17.182Z" fill="#B32F4F"/>
<path d="M42.4516 10.2637C43.5178 10.8039 45.0774 10.6123 46.1051 11.7416C46.3803 12.0441 46.7576 12.3917 46.5117 12.8322C46.2534 13.2948 45.8636 13.0022 45.4782 12.898C44.3931 12.6045 43.2851 12.3951 42.1891 12.1392C41.5405 11.9878 41.3231 11.5437 41.3602 10.9143C41.3954 10.32 41.7649 10.215 42.4516 10.2637Z" fill="#BC3059"/>
<path d="M27.9521 29.27C28.8775 30.0496 28.4311 31.1062 28.3247 31.9643C28.1111 33.6879 28.0797 35.3748 28.3915 37.0756C28.0543 37.7255 28.0155 38.4234 28.0105 39.1383C28.0069 39.6718 28.129 40.2558 27.6358 40.6808C27.4902 40.6047 27.3445 40.5286 27.1988 40.4525C26.7398 40.0399 26.744 39.462 26.7116 38.9308C26.6695 38.2417 26.4056 37.9435 25.6823 38.0192C25.0935 38.0808 24.4882 38.0749 24.0432 37.5671C23.9681 37.4304 23.893 37.2938 23.8179 37.1571C24.7337 37.1426 25.6495 37.1255 26.5655 37.1143C27.3203 37.1052 27.697 36.8194 27.6789 35.985C27.6368 34.0447 27.6669 32.1025 27.6973 30.1614C27.7018 29.8631 27.8632 29.5671 27.9521 29.27Z" fill="#B12F55"/>
<path d="M34.6394 37.0744C36.647 35.652 35.7807 33.6392 35.675 31.8266C35.5696 30.019 35.643 28.2164 35.6098 26.412C35.6047 26.1328 35.7736 25.9874 36.0406 25.9409C36.2012 28.8544 36.4306 31.767 36.313 34.6876C36.2795 35.5188 36.444 36.3163 36.5532 37.126L36.569 37.1045C35.9185 37.5495 35.2739 37.6271 34.6394 37.0744Z" fill="#AF3151"/>
<path d="M59.402 68.0346C59.3122 67.9507 59.2222 67.8669 59.1323 67.783C59.3973 66.9326 60.1606 66.4218 60.584 65.6527C61.4663 64.0496 61.6193 62.2195 62.3932 60.5976C62.5601 60.2477 62.3949 59.9211 62.3417 59.5739C62.24 58.9119 62.6034 58.4805 63.2472 58.2856C62.9604 61.1714 62.2416 63.93 60.8446 66.5007C60.4926 67.1483 59.9446 67.5808 59.402 68.0346Z" fill="#B92E58"/>
<path d="M13.9848 31.4076C13.9848 31.1833 13.9846 30.9589 13.9846 30.7347C15.2359 30.6571 16.475 30.5031 17.7075 30.2633C18.1632 30.1745 18.6657 30.1938 19.1234 30.2822C19.4912 30.353 19.8465 30.561 19.746 31.0879C19.3812 33.0002 19.3246 34.9412 19.2292 36.8783C18.641 36.7623 18.8107 36.2951 18.7897 35.9276C18.7087 34.5165 18.8029 33.1197 19.1049 31.7331C19.2679 30.9846 19.079 30.6498 18.1574 30.8393C16.786 31.1209 15.3775 31.2268 13.9848 31.4076Z" fill="#8E1D21"/>
<path d="M32.5079 9.04905C31.2993 8.70318 30.0644 8.7827 28.8386 8.8738C28.1689 8.92352 27.5016 10.2124 27.8072 10.7613C27.9504 11.0187 28.2167 10.953 28.4437 10.9575C28.9616 10.9677 29.48 10.9693 29.998 10.9606C30.9974 10.9438 32.11 11.231 32.6765 10.0122C32.8569 11.036 32.4259 11.4859 31.3765 11.4436C30.4582 11.4065 29.5368 11.4183 28.6176 11.4413C27.9856 11.457 27.3407 11.4374 27.2172 10.6865C27.0743 9.81862 27.0394 8.64991 28.0151 8.45844C29.3358 8.1992 30.7645 8.12971 32.1328 8.53935C32.434 8.62937 32.4823 8.80802 32.5079 9.04905Z" fill="#591815"/>
<path d="M14.5298 13.8082C14.8722 13.7796 15.2102 13.8187 15.3628 14.1465C15.5138 14.4703 15.1777 14.6239 15.006 14.8231C14.4937 15.4177 13.9461 15.9855 13.4696 16.6069C12.9885 17.2344 12.5207 17.1718 11.9909 16.711C11.2983 16.1088 11.9193 15.7457 12.2776 15.4052C12.9474 14.7687 13.4546 13.8835 14.5298 13.8082Z" fill="#C23F77"/>
<path d="M18.6398 14.6594C18.3482 14.4701 18.0676 14.3186 18.2828 13.8392C18.5367 13.2734 20.7035 11.457 21.2797 11.5414C21.7859 11.6155 22.3168 11.8529 22.0509 12.5693C21.9504 12.84 18.9265 14.6847 18.6398 14.6594Z" fill="#DE7194"/>
<path d="M9.89996 44.2862C9.53641 45.0952 8.61421 44.877 8.31039 44.6623C7.81848 44.3146 6.80878 44.3504 6.978 43.1947C7.15814 41.9645 7.0251 40.6882 7.01091 39.4321C7.00716 39.1043 7.13771 38.6497 6.62256 38.584C6.16824 38.5259 5.71813 38.6575 5.60677 39.1727C5.51507 39.5969 5.39716 39.9298 4.89808 39.9661C4.72917 38.0812 5.63828 38.0488 7.51139 37.8298C7.55787 37.8802 7.60419 37.9305 7.6516 37.9802C8.04151 39.2028 7.81271 40.4597 7.84203 41.7002C7.88383 43.4685 7.85435 43.4691 9.52862 44.0131C9.68286 44.0631 9.80701 44.1542 9.89996 44.2862Z" fill="#5E1A15"/>
<path d="M8.25922 33.0728C8.60327 33.0655 8.92721 33.0867 8.93968 33.5463C8.40146 34.1694 8.49597 35.0049 8.35794 35.7139C8.22506 36.3968 8.6719 37.1091 9.68659 37.142C10.2365 37.1598 10.9792 36.7094 11.3435 37.5518C10.0985 38.225 8.82334 38.4712 7.48486 37.8188L7.51138 37.8301C7.58624 36.2173 7.97443 34.653 8.25922 33.0728Z" fill="#8D1D22"/>
<path d="M17.826 7.01739C17.7534 7.3052 17.7113 7.70141 17.303 7.8708C16.4533 8.22346 15.5876 8.53938 14.7457 8.90872C14.4219 9.05078 14.2209 8.84325 14.0591 8.70691C13.8717 8.54911 14.1445 8.38405 14.2246 8.22176C14.8673 6.92011 16.339 6.95933 17.3982 6.33584C17.7021 6.15672 17.8269 6.62319 17.826 7.01739Z" fill="#631C16"/>
<path d="M51.551 16.1931C52.4953 16.4192 53.4592 16.8316 54.1863 17.6297C54.4525 17.9219 54.4701 18.3604 53.8809 18.3147C52.7612 18.228 51.7275 17.9066 51.0959 16.881C50.8713 16.5163 50.8697 16.1942 51.551 16.1931Z" fill="#AF3151"/>
<path d="M2.42896 64.9426C3.32574 64.8722 3.4006 65.7266 3.82436 66.1778C4.71615 67.1274 5.61029 68.0665 6.77361 68.7019C5.95434 69.3918 5.32643 68.6763 4.82423 68.2895C3.70957 67.431 2.82713 66.3381 2.42896 64.9426Z" fill="#621C16"/>
<path d="M36.0371 24.2745C33.8183 23.8361 31.5712 24.177 29.3436 24.0254C28.8275 23.9902 28.6195 24.4721 28.1846 24.5103C28.179 23.8018 28.6023 23.562 29.2433 23.5622C31.1501 23.5625 33.0571 23.5758 34.9637 23.556C35.5204 23.5501 35.8477 23.7884 36.0371 24.2745Z" fill="#A42D55"/>
<path d="M36.4022 7.38415C36.6552 7.3965 36.9207 7.34447 37.125 7.43217C37.6205 7.64463 38.5409 7.63213 38.356 8.33082C38.2529 8.72008 37.3365 8.92374 36.6926 8.75775C36.4704 8.70047 36.2157 8.59532 36.0775 8.42917C35.8637 8.17209 35.2933 8.17409 35.4069 7.71489C35.5444 7.15949 36.0739 7.49532 36.4022 7.38415Z" fill="#DD77A0"/>
<path d="M22.0205 7.06139C22.8627 6.16444 23.7623 5.7934 24.721 5.53152C24.9506 5.46883 25.0911 5.6498 25.1978 5.81239C25.3386 6.02686 25.1574 6.16351 25.0392 6.31714C24.3037 7.27277 23.2992 7.25486 22.0205 7.06139Z" fill="#B5315C"/>
<path d="M4.89835 40.9199C5.5367 41.6256 5.53655 43.7862 4.89819 44.4841C4.89819 43.2961 4.89835 42.1079 4.89835 40.9199Z" fill="#5E1A15"/>
<path d="M55.6255 24.4033C56.2869 24.5744 56.7219 24.9521 56.8598 25.6952C56.0004 25.6225 55.7136 25.1096 55.6255 24.4033Z" fill="#DB8BAB"/>
<path d="M16.0838 18.2009C15.6653 18.8132 15.2184 19.4104 14.2214 19.2331C14.7782 18.685 15.3505 18.3277 16.0838 18.2009Z" fill="#4E1817"/>
<path d="M22.6359 37.1519C21.9926 37.8527 21.3492 37.8519 20.7056 37.1523C21.3489 37.1522 21.9924 37.152 22.6359 37.1519Z" fill="#7B192A"/>
<path d="M45.2898 16.71C46.0308 16.5299 46.2524 17.2924 47.0567 17.4223C45.9573 17.6035 45.9573 17.6035 45.2898 16.71Z" fill="#A7445F"/>
<path d="M50.79 11.3889C51.293 11.6011 51.7573 11.6582 51.9342 12.2011C51.1917 12.1891 51.1917 12.1891 50.79 11.3889Z" fill="#A6436F"/>
<path d="M27.9166 45.2134C28.8598 45.6815 29.8652 45.3693 30.8395 45.4214C31.5552 45.4595 32.2675 45.4504 32.9573 45.6738C35.2559 47.655 37.6576 49.519 39.9681 51.4771C42.1728 53.3455 44.5269 55.0313 46.6664 56.9749C47.601 57.8238 48.5902 58.6153 49.5784 59.4038C50.2107 59.9083 50.3567 60.3445 49.8172 61.0799C47.5328 64.1946 45.3004 67.347 43.0776 70.5054C42.3519 71.5367 41.752 72.6404 40.8164 73.5372C40.3807 73.9548 40.3326 74.6474 41.0731 75.0221C42.8199 75.9059 44.2177 77.2897 45.9 78.283C47.1704 79.0331 48.1631 80.2184 49.5321 80.8687C48.1167 82.6107 46.7199 84.387 44.7473 85.5472C44.3621 85.7738 44.2465 86.1142 43.956 86.3597C41.1948 88.6924 38.0116 90.2363 34.5709 91.283C33.8234 91.5104 32.9665 91.1315 32.2244 91.5731C32.0728 91.5348 31.9049 91.5137 31.908 91.3009C31.9378 89.2067 32.0069 87.1119 31.9805 85.0183C31.9688 84.0944 32.2957 83.3981 32.9927 82.8576C34.528 81.6673 35.9788 80.384 37.3776 79.0342C37.178 78.6395 36.8648 78.4416 36.4108 78.5051C35.2741 78.6639 34.1233 78.76 33.0055 79.0043C31.1489 79.4099 29.6556 78.2418 27.9604 77.9733C27.7827 77.9452 27.701 77.7885 27.7239 77.6183C27.7572 77.3719 27.961 77.2655 28.1566 77.3496C29.1438 77.7747 30.2005 77.485 31.2275 77.679C32.9188 77.9983 34.5988 77.3171 36.3029 77.2497C36.5433 77.2403 36.762 77.0354 36.7007 76.7553C36.6307 76.4354 36.3453 76.339 36.0505 76.354C35.1685 76.3991 34.3096 76.2493 33.4439 76.1161C32.425 75.9592 32.3066 75.6966 32.9264 74.8408C33.8502 73.5656 34.6939 72.2247 35.7116 71.0284C36.4038 70.2148 35.9066 69.6506 35.6002 69.0013C35.2833 68.3296 34.7222 68.4649 34.1585 68.6147C32.8785 68.9545 31.5982 69.114 30.2845 68.7397C29.4905 68.5135 29.0595 68.2006 29.2424 67.2462C30.1804 62.3547 31.0602 57.4523 31.9638 52.5545C32.0575 52.046 31.9434 51.6302 31.5382 51.2777C30.6411 50.4973 29.7901 49.6629 28.867 48.915C27.6015 47.8899 27.3032 46.8465 27.9166 45.2134Z" fill="#CB3247"/>
<path d="M24.043 37.5671C24.2754 37.6065 24.5411 37.5875 24.734 37.6958C25.4348 38.0884 26.4646 37.1297 26.8912 38.0402C27.2193 38.7406 27.1122 39.641 27.1986 40.4525C25.9796 39.67 24.769 38.8784 24.043 37.5671Z" fill="#D43753"/>
<path d="M12.294 44.2391C12.2898 42.0351 12.2855 39.8309 12.2812 37.6269C13.1248 37.2568 12.7585 38.0071 12.7618 38.2145C12.7944 40.3059 12.7803 42.3981 12.7794 44.4902C12.6175 44.4065 12.4558 44.3228 12.294 44.2391Z" fill="#7E1A27"/>
<path d="M51.6384 44.2086C51.6554 42.3089 51.6668 40.4091 51.6947 38.5096C51.6997 38.1751 51.5865 37.8933 51.4363 37.6126C51.7142 37.3093 52.1342 37.2675 52.1122 37.7C52.0007 39.8862 52.7793 42.102 51.909 44.2612C51.8187 44.2438 51.7286 44.2262 51.6384 44.2086Z" fill="#DB6F98"/>
<path d="M19.914 28.614C19.8418 27.2179 20.4132 25.9851 20.5754 24.6797C20.6257 24.2761 20.7364 24.2072 21.1255 24.131C22.8424 23.7947 24.5921 23.8736 26.3167 23.6617C26.7564 23.6077 26.874 23.9838 26.8679 24.2801C26.8434 25.4848 26.7584 26.6881 26.7121 27.8925C26.6957 28.3168 26.5641 28.5819 26.0772 28.5257C24.0157 28.2879 21.9715 28.8767 19.914 28.614Z" fill="#D03252"/>
<path d="M41.1487 21.6896C42.4028 21.6773 43.5664 22.3178 44.847 22.1748C45.202 22.1351 45.3845 22.4509 45.4363 22.8038C45.5957 23.8905 45.7335 24.9814 45.9377 26.0601C46.0681 26.7492 45.8393 27.0553 45.1621 26.8785C43.4474 26.4309 41.6674 26.8493 39.9433 26.4429C39.4058 26.3161 39.2827 26.2238 39.2576 25.6451C39.226 24.9132 39.2137 24.1666 39.0572 23.4219C38.7834 22.1184 39.3391 21.7114 41.1487 21.6896Z" fill="#CB3247"/>
<path d="M14.9626 23.2202C15.0271 22.311 15.6178 21.7701 15.9173 21.1042C16.0514 20.8062 16.4217 20.4342 16.7876 21.0285C16.9608 21.31 17.2294 21.1419 17.3947 20.9949C17.8026 20.6322 18.2889 20.6895 18.7575 20.7166C19.1066 20.737 19.7342 20.5246 19.659 21.1295C19.598 21.6208 19.7214 22.3564 18.841 22.49C17.5799 22.6815 16.332 22.958 14.9626 23.2202Z" fill="#AA2421"/>
</svg>
