<svg width="384" height="386" viewBox="0 0 384 386" fill="none" xmlns="http://www.w3.org/2000/svg">
<path d="M23.0719 375.367C23.2924 375.695 23.0418 376.473 23.5873 376.361C24.6432 376.146 25.0172 375.37 24.6808 374.371C25.9537 374.345 26.0986 373.571 26.0089 372.64C26.3868 371.576 27.2466 370.665 27.1938 369.313C25.0479 369.93 23.5618 369.316 22.3405 367.532C20.2128 364.423 17.8458 361.455 15.3055 358.067C15.3169 358.052 15.3328 358.038 15.3453 358.023C17.8311 358.245 18.6482 359.681 19.5121 360.927C21.08 363.191 22.486 365.552 24.013 367.841C24.3915 368.409 24.845 369.117 25.7679 368.902C26.5755 368.714 26.6187 368.064 26.5487 367.417C29.2294 365.577 26.21 364.549 25.9674 363.117C25.3462 364.397 27.4171 365.472 26.1367 366.781C24.017 362.495 20.9982 358.942 16.4921 356.624C15.8369 356.286 14.9759 355.176 14.5258 356.836C13.9496 355.48 13.8433 354.129 14.5127 352.788C14.5474 352.815 14.5821 352.841 14.6168 352.867C14.7315 353.749 14.8964 354.41 16.1028 355.031C18.7494 356.393 21.0527 358.333 23.6765 359.909C20.7811 356.313 19.2808 351.977 16.2853 348.46C15.7119 347.787 15.2487 346.542 14.5758 348.382C13.5023 349.238 14.6048 350.658 13.6313 351.54C13.4858 349.619 12.9937 347.655 13.2602 345.785C14.0087 340.528 16.9644 337.116 22.4604 334.799C28.5691 332.224 34.0821 328.494 35.8126 321.607C36.136 320.32 36.5036 318.138 37.2771 317.765C39.5048 316.691 38.3932 315.55 38.0489 314.305C37.6692 312.933 36.3383 311.858 36.7207 310.231C39.6406 313.983 40.3891 318.608 42.2753 322.836C44.2877 321.178 44.7002 318.536 43.3528 316.801C42.5685 317.181 43.7648 318.097 42.8141 318.529C42.1639 317.199 41.5484 315.933 40.9256 314.67C40.6284 314.067 40.9625 313.583 41.1159 313.02C41.2256 312.616 40.9352 311.724 40.0612 311.777C39.0616 311.839 38.466 311.063 38.4239 310.584C38.1568 307.564 34.5322 307.754 33.5036 307.751C31.0349 307.745 31.1809 306.542 31.3145 305.388C31.5316 303.514 31.535 301.594 32.592 299.811C33.6434 298.037 34.0213 296.013 33.9202 293.953C34.7078 288.728 32.1397 284.712 28.2485 281.2C29.4113 283.229 30.574 285.257 31.7754 287.353C30.811 287.419 30.7882 286.548 30.2131 286.357C29.5425 285.172 28.8714 283.987 28.2008 282.803C28.2798 284.315 28.5463 285.718 29.8051 286.703C30.1728 287.655 31.015 288.215 31.8612 288.723C32.7239 289.242 33.2814 289.801 32.8546 290.811C28.5565 289.345 26.4777 285.769 25.099 282.318C22.765 276.474 19.4575 271.183 14.9009 266.898C9.45035 261.772 7.72327 255.503 6.05988 248.962C4.94431 244.575 6.51562 240.159 5.70523 235.846C4.26233 228.167 7.45334 221.244 9.43442 214.141C10.2869 211.085 11.5837 210.985 13.9888 213.274C15.8266 215.024 17.5895 216.841 19.3865 218.627C22.5116 221.734 27.0199 223.349 29.9631 226.497C35.5836 232.511 39.5423 239.495 41.4604 247.328C42.452 251.378 42.3742 255.549 42.4583 259.687C42.5225 262.824 42.2804 265.952 43.5432 269.023C44.2149 270.656 44.7764 272.517 43.6284 274.347C43.2954 274.877 43.0129 275.507 44.2717 276.121C47.1786 277.54 47.5025 279.745 46.8955 282.791C46.1278 286.643 42.7566 289.57 42.7794 293.632C42.7805 293.852 42.5509 294.236 42.3708 294.269C39.4588 294.805 38.7905 297.393 37.039 298.974C39.4463 298.5 41.0722 299.584 42.5668 300.907C43.2443 301.507 43.6784 302.379 44.4172 302.879C48.5732 305.692 48.988 309.223 46.9979 313.343C44.6008 318.306 46.7046 323.231 47.2121 328.171C49.0795 324.151 49.9615 320.108 47.2837 316.112C46.616 315.115 47.3997 314.711 47.8117 314.1C48.5135 313.06 48.8107 313.989 49.2159 314.355C50.477 315.492 52.0682 315.366 53.2963 314.697C54.2476 314.179 54.2868 313.948 55.0722 314.939C56.0957 316.229 58.1098 316.182 59.6862 316.167C60.9195 316.156 59.0617 314.622 60.4683 313.985C60.716 314.826 61.0041 315.611 61.165 316.418C61.2661 316.925 61.6537 317.452 61.9936 317.23C64.2696 315.744 63.8564 317.781 64.2935 318.685C64.9504 320.044 65.5903 321.41 66.2371 322.773C66.49 320.975 66.7008 319.199 65.213 317.853C63.9656 316.725 65.9387 316.058 65.5613 315.089C67.6743 315.031 68.6387 313.135 70.264 312.274C75.918 309.279 81.131 305.482 82.9558 299.065C83.228 298.108 83.1593 296.924 84.2084 296.206C84.8057 296.619 84.5562 297.147 84.4931 297.644C83.4963 298.894 83.9055 300.288 83.5429 301.603C83.8117 301.643 84.0799 301.683 84.3488 301.722C84.5965 300.35 84.8448 298.978 85.0926 297.606C85.5325 295.968 86.7396 294.685 87.4585 293.155C90.1323 287.462 92.2981 281.564 95.4101 276.046C96.7786 273.621 97.8129 271.079 98.0141 268.298C98.0834 267.337 97.7401 266.301 99.3797 265.85C99.9815 265.684 100.808 263.837 99.5166 263.281C95.7613 261.663 93.179 258.631 89.7265 256.66C87.675 255.489 86.04 253.731 84.1862 252.321C82.0562 250.701 82.3029 248.297 80.9634 246.438C79.2619 244.076 77.8429 241.476 77.0262 238.605C76.4852 236.703 75.5344 234.466 72.3684 235.549C71.8706 235.719 71.2437 235.559 70.6766 235.558C66.4717 235.556 62.592 233.95 58.586 233.115C56.131 232.604 53.4548 230.902 52.466 227.887C51.8613 226.043 50.685 223.786 49.0329 222.914C41.5621 218.968 38.5444 212.636 37.4089 205.286C36.3712 198.57 34.3793 192.165 31.6935 185.875C30.1398 182.235 28.1877 178.626 27.7217 174.703C26.8488 167.349 26.6874 160.001 30.1631 153.029C31.2991 150.751 31.4668 148.038 30.2665 146.095C29.0282 144.091 27.1818 142.287 25.6667 140.329C20.6157 133.8 19.682 126.448 20.5634 118.795C21.3375 112.075 21.3403 105.472 19.3763 98.9006C18.9455 97.4601 18.3374 95.0167 19.6411 94.4633C22.0308 93.4488 24.2437 91.7889 27.2154 91.8872C31.7754 92.0384 36.3621 92.0484 40.9119 91.7672C46.8495 91.4008 52.8513 90.0179 58.5605 94.4421C58.1337 93.2849 57.9825 92.7964 57.7773 92.3291C53.6157 82.8496 52.6132 73.3684 57.1704 63.6705C58.8753 60.043 59.9556 56.1543 61.2121 52.3539C61.8839 50.3229 61.8299 48.1819 61.9032 46.07C62.0612 41.5142 63.1665 37.1085 67.3339 34.4087C70.68 32.2413 73.1561 29.5558 75.377 26.5315C76.5301 24.9614 77.9542 24.2081 80.1081 24.1928C84.1311 24.1637 87.9779 24.7214 91.7128 26.107C96.5615 27.9059 101 30.3276 105.126 33.3049C107.805 35.2382 110.6 37.0318 114.052 37.6726C122.241 39.1913 129.785 42.4076 137.432 45.3738C148.429 49.6394 156.889 56.0919 160.097 67.7321C161.394 65.5033 161.991 63.273 163.366 61.4116C168.688 54.2042 173.478 46.7155 177.173 38.6505C178.355 36.0697 179.907 33.7199 181.715 31.4351C184.146 28.3653 187.195 25.8881 189.85 23.061C192.825 19.8939 196.418 17.5383 200.185 15.447C204.52 13.0395 209.023 11.0048 212.979 7.93446C216.732 5.02271 220.322 1.84348 225.576 0.744434C231.308 -0.455049 236.609 -0.0337233 241.9 1.95079C244.93 3.08737 246.57 6.15982 249.485 7.24987C254.487 9.11967 258.041 12.3914 261.135 16.2431C263.213 18.8292 265.447 21.779 265.717 24.7838C266.636 35.0124 270.832 44.1309 275.675 53.0507C278.306 57.8967 278.471 62.8062 277.533 67.8928C277.319 69.0579 276.92 70.1199 278.418 70.4049C280.216 70.7469 281.721 73.2976 284.051 70.9922C283.416 73.3182 285.394 73.4482 286.61 73.4007C289.415 73.2907 291.975 74.2116 294.656 74.5764C303.051 75.7177 309.099 81.981 309.647 89.8773C309.756 91.4495 309.959 93.0497 310.417 94.5589C311.166 97.0282 311.291 99.479 310.21 101.807C307.484 107.674 308.95 113.487 310.837 119.06C313.21 126.068 313.471 132.734 309.697 139.339C313.486 139.968 317.045 141.144 320.657 141.76C324.473 142.41 327.776 143.988 331.289 145.179C334.318 146.206 336.6 148.26 338.291 150.745C339.121 151.965 339.893 152.729 341.47 152.284C341.584 153.101 339.508 153.306 340.718 153.794C342.887 154.669 344.276 156.798 346.835 156.928C351.946 157.187 356.779 158.95 361.888 159.308C363.828 159.445 365.661 160.269 367.466 161.121C370.974 162.778 373.505 165.587 376.794 167.502C383.458 171.381 385.806 176.794 382.544 183.724C381.162 186.663 379.217 189.34 377.825 192.318C376.146 195.906 375 199.766 372.538 203.004C369.356 207.189 365.582 210.842 360.951 213.707C359.646 214.514 358.34 215.654 358.823 217.314C358.928 217.674 359.582 218.06 358.833 218.12C357.192 218.252 357.222 219.627 356.449 220.394C354.391 222.436 355.019 226.228 351.288 227.183C350.948 227.27 350.782 227.891 350.499 228.239C347.425 232.016 344.284 235.728 341.722 239.864C338.251 245.47 332.091 248.652 327.221 253.001C325.854 254.222 323.92 255.047 322.092 255.639C315.234 257.862 308.084 259.222 301.45 262.155C298.2 263.593 294.546 264.241 290.856 265.311C291.241 265.647 291.48 265.882 291.748 266.081C292.115 266.354 292.469 266.673 292.889 266.847C300.167 269.86 305.207 274.79 307.824 281.823C307.973 282.224 308.135 282.709 308.464 282.951C313.715 286.824 316.975 292.283 321.356 296.832C324.432 300.026 328.154 302.679 331.562 305.598C332.136 306.089 333.197 306.631 332.387 307.493C331.331 308.619 330.714 307.378 330.21 306.813C326.961 303.166 322.705 301.02 317.851 300.112C313.506 299.299 309.374 297.935 305.166 296.748C304.213 296.48 303.229 295.965 302.15 296.261C300.011 296.849 297.968 296.215 296.15 295.428C293.808 294.414 291.396 293.77 288.895 293.522C286.313 293.266 284.1 292.159 282.27 290.762C280.31 289.265 278.254 287.875 276.2 286.546C273.601 284.864 270.624 283.689 267.473 282.129C269.975 291.518 267.987 299.222 265.679 304.921C262.998 311.543 260.998 318.235 260.1 325.251C259.872 327.034 259.716 328.915 258.614 330.521C258.376 330.487 258.136 330.453 257.898 330.418C257.834 330.399 257.762 330.383 257.692 330.372C257.03 329.433 257.132 328.37 257.139 327.323C257.143 326.827 257.25 326.347 257.368 325.869C257.515 326.381 257.664 326.892 257.808 327.405C258.023 326.457 258.237 325.509 258.452 324.561C258.249 324.206 258.062 323.845 257.882 323.483C258.527 320.527 257.766 317.568 257.714 314.612C257.792 314.183 257.855 313.748 258.084 313.398C258.192 313.821 258.301 314.245 258.409 314.668C258.589 314.112 258.771 313.556 258.951 313.001C258.947 312.969 258.94 312.938 258.935 312.907C259.451 313.088 259.439 313.712 259.868 313.995C260.353 312.191 260.709 310.355 261.605 308.701C263.358 305.461 263.162 302.306 261.541 299.068C260.802 297.592 259.805 296.082 260.418 294.296C260.456 294.24 260.496 294.189 260.538 294.142C260.59 294.268 260.638 294.395 260.691 294.522C260.891 294.334 261.091 294.146 261.291 293.958C261.279 293.915 261.267 293.873 261.255 293.83C261.322 293.835 261.39 293.844 261.463 293.863C263.533 295.509 263.244 298.199 264.639 300.194C264.985 299.772 265.03 299.327 265.149 298.909C268.124 288.402 264.417 278.812 260.415 269.27C260.111 268.547 259.457 267.971 258.972 267.323C258.352 266.495 257.538 266.335 256.496 266.511C251.48 267.361 246.405 267.521 241.323 267.743C238.244 267.877 235.105 267.956 231.957 268.474C232.488 270.008 234.092 270.622 233.691 272.087C233.654 272.142 233.612 272.189 233.568 272.232C233.381 272.236 233.194 272.239 233.008 272.243C233.057 272.309 233.103 272.375 233.152 272.441C233.106 272.45 233.062 272.461 233.013 272.465C232.425 272.365 231.928 272.069 231.582 271.662C229.337 269.021 226.566 268.381 223.033 269.113C219.21 269.903 215.65 269.046 212.289 266.963C210.093 265.602 208.237 263.908 206.093 262.473C207.414 264.493 208.735 266.486 209.898 268.564C210.364 269.397 210.941 270.211 210.351 271.18C210.116 271.184 209.88 271.19 209.644 271.194C209.686 271.282 209.73 271.367 209.772 271.453C209.699 271.466 209.629 271.486 209.552 271.487C208.406 271.232 207.996 270.308 207.46 269.5C205.886 267.127 204.479 264.659 202.844 262.323C202.149 261.33 201.845 259.344 199.962 260.245C198.343 261.02 200.112 262.407 199.979 263.529C199.982 263.679 199.984 263.828 199.982 263.976C199.783 263.73 199.586 263.485 199.397 263.236C199.204 263.93 199.517 264.715 198.958 265.342C198.971 265.391 198.987 265.44 199 265.489C197.882 265.113 197.781 264.085 197.41 263.245C197.019 262.361 196.828 261.376 195.822 260.844C195.652 260.76 195.486 260.702 195.322 260.66C195.549 260.487 195.825 260.337 196.039 260.147C194.979 259.769 194.009 259.863 193.164 260.617C193.274 260.815 193.378 261.015 193.484 261.215C192.836 262.68 193.905 264 193.964 265.412C193.989 266.012 194.2 266.788 193.411 266.977C192.735 267.139 192.248 266.542 191.899 266.002C191.657 265.627 191.519 265.213 191.402 264.789C191.246 264.221 191.117 263.756 190.991 263.363C190.946 263.127 190.901 262.89 190.872 262.649C190.821 262.213 190.801 261.67 190.143 261.807C190.131 261.81 190.123 261.815 190.112 261.818C189.534 261.397 188.614 261.369 186.791 261.315C186.231 261.299 185.67 261.275 185.117 261.169C184.795 261.088 184.472 261.037 184.147 261.005C184.259 260.854 184.409 260.715 184.617 260.595C184.032 259.561 183.482 260.566 182.916 260.62C182.942 260.746 182.957 260.872 182.963 260.997C182.929 261 182.895 260.999 182.861 261.003C180.928 261.068 179.747 262.065 179.027 263.659C178.703 264.374 178.506 265.186 177.629 265.551C176.829 265.511 176.41 265.049 176.166 264.395C176.024 263.54 176.057 262.819 174.609 262.733C170.129 262.47 165.993 261.07 162.203 258.821C158.694 256.739 155.46 254.337 152.503 251.613C152.414 251.54 152.325 251.467 152.237 251.394C152.396 251.249 152.578 251.127 152.801 251.048C152.387 250.697 151.972 250.346 151.558 249.996C151.479 250.167 151.4 250.338 151.321 250.509C151.252 250.425 151.182 250.342 151.122 250.25C150.209 248.599 148.59 247.508 147.412 245.889C147.035 246.853 147.14 247.682 146.779 248.396C145.448 251.027 144.879 254.156 141.509 255.473C141.476 255.451 141.449 255.426 141.42 255.402C141.422 255.397 141.426 255.393 141.429 255.388C141.429 255.388 141.361 255.34 141.324 255.315C141.2 255.186 141.114 255.034 141.069 254.858C141.013 253.811 141.675 253.05 142.274 252.268C145.082 248.605 146.051 244.705 144.113 240.4C143.674 239.425 143.515 238.379 143.506 237.319C143.691 236.394 143.54 235.551 143.248 234.742C143.292 234.69 143.336 234.638 143.38 234.586C144.007 235.589 143.279 236.775 144.149 237.534C144.734 235.377 143.82 233.613 142.459 231.967C142.344 232.073 142.227 232.178 142.111 232.283C142.394 229.845 144.544 227.892 144.216 225.391C143.008 226.231 142.253 227.671 140.559 228.026C140.486 228.013 140.421 227.993 140.36 227.967C140.337 227.841 140.26 227.766 140.107 227.763C140.103 227.765 140.099 227.767 140.095 227.768C140.052 227.715 140.013 227.658 139.982 227.591C140.114 225.193 142.133 223.792 143.402 221.995C143.554 221.963 143.699 221.922 143.841 221.877C143.8 221.947 143.759 222.018 143.719 222.088C144.762 222.173 145.106 221.12 145.96 220.898C146.009 220.565 146.061 220.192 145.936 219.908C148.44 214.8 151.883 210.449 157.546 207.942C160.255 206.742 163.097 205.825 166.293 204.694C164.498 203.868 164.618 201.85 162.822 201.295C162.758 201.289 162.697 201.288 162.634 201.282C162.769 201.15 162.905 201.02 163.037 200.881C163.037 200.881 162.947 200.911 162.947 200.91C162.906 200.433 162.726 199.95 162.135 200.068C158.011 200.896 153.949 201.877 150.382 204.133C149.388 204.762 148.243 205.185 147.166 205.702C147.166 205.702 147.166 205.702 147.166 205.702L147.166 205.702C146.917 205.672 146.669 205.641 146.42 205.611C146.423 205.56 146.437 205.518 146.444 205.47C148.827 204.165 151.225 202.852 154.129 201.263C151.771 201.083 150.148 200.052 148.203 200.407C148.194 200.406 148.185 200.405 148.176 200.405C148.184 200.399 148.193 200.395 148.201 200.389C148.201 200.396 148.203 200.401 148.203 200.407L148.261 200.35C148.239 200.351 148.218 200.355 148.195 200.356C148.033 198.787 145.817 199.452 145.391 198.17C144.877 197.248 144.537 196.154 143.09 196.152C139.407 191.512 134.627 187.805 130.612 183.447C130.226 182.924 129.84 182.401 129.453 181.878C128.063 180.498 127.091 178.814 126.752 177.033C126.359 174.964 125.114 173.767 123.301 172.928C120.286 171.534 117.213 170.31 114.013 169.255C109.841 167.88 105.452 167.607 101.233 166.758C96.7024 165.847 91.7133 166.555 86.8993 167.156C80.3871 167.968 75.8527 171.478 71.4728 175.453C70.5987 176.246 69.7974 177.067 69.7383 178.351C69.428 185.058 68.1647 191.713 68.6466 198.468C69.0365 203.928 71.1545 208.728 74.1881 213.353C76.18 216.391 78.2776 214.527 80.4377 214.025C80.6775 214.222 80.9168 214.42 81.1566 214.616C79.8456 215.06 78.5339 215.504 76.9341 216.046C78.9039 217.587 81.1344 218.22 83.3565 219.145C87.0504 220.683 90.5449 219.628 94.1047 219.86C94.5168 220.027 94.9293 220.194 95.3413 220.361C92.035 221.015 88.6786 221.108 85.1364 221.058C85.3921 222.757 86.6549 223.832 87.4727 225.115C87.6596 225.527 87.8466 225.939 88.0336 226.351C88.2399 227.288 88.9923 227.841 89.755 228.34C92.7346 230.29 96.3739 231.134 99.2154 233.404C100.403 234.353 102.317 233.589 103.896 233.692C103.889 233.839 103.885 233.986 103.882 234.133C103.931 234.136 103.977 234.132 104.025 234.134C104.013 234.188 103.998 234.241 103.974 234.296C103.025 234.983 103.15 235.752 103.695 236.616C105.104 238.85 105.647 241.364 106.403 243.819C107.881 248.611 108.564 253.7 112.118 257.756C115.299 261.386 117.91 265.595 123.095 267.213C123.594 267.369 123.955 267.615 123.806 268.156C123.46 269.423 124.598 269.814 125.338 270.43C127.627 272.335 130.342 273.561 133.117 274.72C134.93 275.478 136.907 275.818 138.653 276.725C141.861 278.393 145.235 279.119 148.977 279.002C153.402 278.864 157.226 277.416 161.045 275.565C163.599 274.327 165.635 272.077 168.797 271.989C169.438 272.207 169.635 272.654 169.544 273.248C168.574 275.225 166.362 275.772 164.663 276.907C164.151 277.14 163.579 277.264 163.105 277.548C159.74 279.571 156.301 281.37 152.13 281.479C150.791 281.514 150.632 282.607 150.357 283.558C149.738 285.693 150.412 287.797 150.74 289.842C152.083 298.218 155.958 305.34 163.199 310.758C166.51 313.235 170.326 315.15 173.139 318.172C174.682 319.829 175.672 322.06 177.646 323.218C179.641 324.389 181.078 325.676 181.664 327.789C181.726 328.013 182.05 328.166 182.275 328.326C184.17 329.674 185.695 331.395 187.242 332.697C186.733 329.587 185.234 326.395 186.821 323.033C186.995 323.033 187.169 323.029 187.343 323.018C187.341 322.98 187.339 322.943 187.337 322.905C187.452 322.939 187.56 322.995 187.66 323.081C188.633 324.576 188.605 326.257 188.779 327.923C189.155 331.512 189.647 335.023 192.786 337.728C194.643 339.326 196.442 341.077 197.664 343.196C200.428 347.989 205.27 350.168 210.426 351.771C217.506 353.972 224.541 353.899 231.355 350.658C236.461 348.229 242.351 347.423 246.925 343.802C248.821 342.301 249.852 340.7 250.225 338.527C250.393 337.55 250.144 336.38 251.424 335.662C252.787 336.611 252.058 338.164 252.595 339.32C252.511 339.538 252.423 339.754 252.345 339.974C252.716 340.344 253.087 340.714 253.457 341.084C252.323 342.561 251.096 344.52 249.73 345.168C246.434 346.73 243.649 349.211 239.91 350.016C237.62 350.509 235.499 351.515 233.309 352.31C230.177 353.447 227.282 355.067 223.741 355.402C217.228 356.018 211.05 355.009 205.37 352.292C202.311 350.829 199.154 349.203 197.105 346.179C195.056 343.154 192.718 340.133 189.869 337.778C183.406 332.432 177.117 326.987 172.044 320.431C170.826 318.859 169.261 317.711 167.631 316.491C163.944 313.734 159.125 312.143 156.744 308.009C155.786 306.346 154.223 305.249 153.066 303.532C152.329 305.968 151.758 308.157 151.003 310.291C148.738 316.697 143.827 321.013 137.465 323.667C134.728 324.807 131.42 325.018 129.104 326.956C127.399 328.384 125.682 329.679 123.619 330.571C120.889 331.751 118.371 333.117 116.479 335.431C115.409 336.739 113.92 337.766 112.263 338.495C111.584 338.794 110.813 339.349 110.278 338.554C109.834 337.893 110.633 337.469 111.143 337.102C117.208 332.743 120.254 326.622 122.668 320.116C123.065 319.046 123.684 318.048 124.129 316.99C125.678 313.306 127.164 309.602 128.347 305.498C124.727 306.181 121.754 307.259 118.954 308.716C115.075 310.734 110.904 312.116 106.79 313.601C101.639 315.46 97.6907 318.196 95.8181 323.368C94.1218 328.053 92.6828 332.882 88.653 336.628C86.9487 338.212 85.8701 340.489 84.8881 342.725C83.7679 345.276 82.6313 347.987 80.1871 349.847C79.7097 350.211 79.109 350.851 78.5021 350.317C77.9054 349.791 78.5526 349.259 78.88 348.717C80.7355 345.648 82.6859 342.457 82.1443 338.851C81.476 334.401 81.6044 329.983 81.7198 325.54C81.7323 325.054 81.6357 324.566 81.5902 324.079C81.4851 324.08 81.3799 324.081 81.2748 324.081C81.2748 324.906 81.2748 325.731 81.2748 326.321C80.1263 327.194 80.0024 324.827 79.1545 325.975C76.8131 329.145 71.7706 329.573 70.4589 333.977C69.6628 332.86 69.2053 331.734 67.8351 332.022C65.9694 332.416 67.5186 334.179 66.59 335.044C65.1402 334.536 66.0757 332.573 64.5566 332.214C64.8254 334.38 63.1222 334.782 61.3895 335.07C59.9028 335.317 58.1746 335.06 56.9317 335.681C52.9252 337.683 48.5857 337.935 44.2802 337.896C42.4219 337.88 42.4083 339.747 40.9381 339.698C41.1563 342.796 37.8857 343.99 36.7815 346.317C35.966 348.036 35.533 349.588 32.9586 349.627C31.9714 349.641 31.9192 351.105 31.7595 352.075C31.6413 352.791 32.6245 353.471 31.6112 354.48C31.0434 353.531 29.95 352.476 30.191 351.973C31.3128 349.622 28.7896 349.623 27.9308 348.562C28.007 349.163 28.2724 349.693 28.4526 350.246C29.3596 353.031 31.2344 355.794 28.2741 358.571C26.6516 360.092 26.4038 361.852 27.9627 363.67C28.2855 364.047 28.3406 364.653 28.431 365.167C29.3533 370.399 26.9284 374.584 23.5208 378.415C22.4331 379.638 20.9311 380.818 20.943 382.375C20.9629 384.999 18.4624 384.883 17.1559 385.264C15.8494 385.645 15.6607 383.577 15.2839 382.473C14.9162 381.395 14.9429 380.203 14.6042 379.112C14.1479 377.642 14.1667 375.961 12.6766 374.583C12.5623 377.631 13.4614 380.447 12.1679 383.519C10.3556 380.526 11.7071 376.894 8.96332 374.457C7.69943 376.266 8.11938 378.52 6.76456 380.545C5.97974 378.747 5.36484 377.21 4.62946 375.724C4.36859 375.197 3.95831 374.53 3.22293 374.541C2.31705 374.555 2.13519 375.411 1.80841 375.998C1.27252 376.961 1.70612 378.227 0.390503 379.653C0.372314 377.816 0.418365 376.589 1.052 375.398C1.52542 374.508 2.09711 373.575 3.21155 373.488C4.42657 373.393 4.87268 374.494 5.41711 375.285C5.88708 375.969 6.24231 376.72 6.81287 377.735C7.52667 375.938 6.86569 373.633 8.62515 373.274C10.7836 372.835 10.5131 375.488 11.7843 376.661C11.6593 375.466 11.5627 374.43 11.4394 373.397C11.3076 372.291 10.92 370.502 11.773 370.284C13.4341 369.858 12.7487 371.974 13.6268 372.652C14.2133 374.743 14.8537 376.823 15.3703 378.929C15.8238 380.777 16.4302 382.505 18.2328 383.717C19.0233 382.215 16.9877 381.807 16.9274 380.682C17.2872 380.088 17.9135 380.14 18.5096 380.118C18.7397 380.76 18.2919 381.66 19.5399 382.291C19.532 375.527 15.7784 370.026 14.0411 364.011C16.3796 365.905 17.1133 368.492 18.0283 370.982C18.8511 373.222 19.7769 375.406 21.3335 377.307C21.5926 377.623 21.8637 378.211 22.3683 377.796C22.6155 377.592 22.4962 377.003 22.5422 376.588C22.5422 376.588 22.5417 376.587 22.5417 376.586C22.5417 376.587 22.5422 376.587 22.5422 376.588C22.7178 376.184 22.8946 375.776 23.0719 375.367ZM44.3075 284.563C46.7887 282.647 46.7558 281.19 43.887 277.941C44.045 280.43 44.1757 282.488 44.3075 284.563ZM34.4527 306.745C34.5027 306.859 35.1267 306.907 35.1523 306.852C35.7853 305.486 36.6372 304.123 35.6273 302.39C35.3329 302.717 35.1335 302.864 35.0374 303.056C34.4492 304.231 33.8707 305.422 34.4527 306.745ZM34.0582 287.632C34.1708 285.905 33.8139 284.366 32.3204 283.263C32.2738 283.229 32.0709 283.378 31.8362 283.493C32.5767 284.872 33.3172 286.252 34.0582 287.632ZM8.66949 220.675C6.93219 223.516 6.48099 226.652 6.76285 229.931C6.6134 230.454 6.90039 230.779 7.30331 231.053C7.30273 231.07 7.29819 231.084 7.29877 231.103C7.30444 231.135 7.31012 231.166 7.3158 231.198C7.09415 231.556 6.72818 231.936 6.78442 232.251C8.07504 239.488 5.60068 246.972 8.61664 254.121C10.5159 258.624 12.2839 263.027 16.416 266.376C19.8462 269.155 21.7455 273.11 23.9823 277.111C24.8933 275.728 25.394 274.421 24.7024 273.302C20.4873 266.487 19.4183 258.875 18.0226 251.336C17.9117 250.737 17.6355 250.164 17.4366 249.579C17.0337 248.543 16.6694 247.492 16.2171 246.475C15.7602 245.448 15.2163 244.455 14.2121 243.612C14.7872 245.294 15.3561 246.978 15.9415 248.657C16.1188 249.165 16.8763 249.704 15.7977 250.096C15.0191 246.977 14.0325 243.839 13.1414 240.822C11.1723 234.158 11.2695 227.186 8.66949 220.675ZM41.5541 268.46C40.122 264.436 40.5812 260.12 40.746 255.927C41.0193 248.978 39.4417 242.549 35.1943 236.764C35.1949 236.763 35.1954 236.763 35.196 236.762C33.4666 232.709 31.5248 228.321 27.5785 226.175C21.2204 222.718 17.2508 217.224 12.0696 212.667C9.88113 214.878 9.88678 217.553 10.3477 220.131C11.9679 229.194 13.379 238.324 17.9794 246.66C18.4386 247.492 18.5067 248.51 18.7568 249.442C18.6528 249.771 18.6875 250.027 19.1364 250.064C19.1916 250.394 19.2467 250.724 19.3018 251.054C19.1796 252.756 19.5309 254.378 20.2685 255.934C20.8448 260.647 21.142 265.573 23.9391 269.599C27.5814 274.84 30.7729 280.41 35.4239 285.197C36.4746 282.404 38.466 280.287 40.0635 277.977C42.1866 274.906 42.8282 272.04 41.5541 268.46ZM36.6582 288.986C37.6294 287.571 36.9407 286.439 37.9278 285.738C38.9308 285.895 39.028 287.077 40.1999 287.441C39.9242 285.566 39.6656 283.805 39.3031 281.339C37.5919 283.858 35.8001 285.628 36.6582 288.986ZM42.3031 290.712C43.8318 287.55 40.9125 285.713 40.8943 283.321C40.7613 285.721 41.2972 288.012 42.3031 290.712ZM37.9397 296.037C40.3408 295.195 40.7448 293.365 40.5414 291.324C40.409 289.994 39.8333 288.777 38.7285 287.625C37.4544 289.971 39.9538 292.171 38.8376 294.616C37.6681 293.843 37.6431 292.796 37.0782 291.842C35.8086 293.093 36.4491 294.454 36.6417 295.72C36.765 296.526 37.4016 296.225 37.9397 296.037ZM38.4478 301.095C38.4307 300.983 37.88 300.788 37.7346 300.871C36.2843 301.695 37.1078 303.032 36.6946 304.585C38.0977 303.383 38.6416 302.361 38.4478 301.095ZM96.4006 276.4C95.3527 278.429 93.7853 279.746 94.7929 281.753C94.7878 281.786 94.7793 281.818 94.7747 281.852C94.8009 281.859 94.8151 281.87 94.839 281.878C95.0901 282.599 94.8134 283.265 94.3309 283.755C93.3682 284.733 93.9166 282.971 93.3597 283.239C93.1414 283.344 92.9982 283.636 92.8863 283.871C91.9616 285.801 91.0518 287.739 90.0607 289.837C91.3434 289.701 91.4042 288.894 91.7429 288.349C92.8386 286.588 95.5437 285.74 95.1703 283.147C95.1078 282.713 95.5851 282.133 94.8395 281.878C94.8322 281.856 94.8287 281.835 94.8202 281.814L94.7753 281.852C94.7753 281.852 94.8202 281.814 94.8202 281.813C94.8094 281.793 94.8032 281.773 94.7929 281.753C95.0646 280.091 96.6302 278.773 96.4006 276.4ZM98.0118 281.296C98.9142 279.676 99.5013 278.622 100.089 277.568C98.3596 278.076 97.7305 279.151 98.0118 281.296ZM98.3357 276.643C101.078 274.854 100.282 272.682 100.789 270.9C99.1223 272.312 99.4052 274.309 98.3357 276.643ZM61.902 232.48C62.9199 232.559 64.0099 232.707 64.9061 233.123C68.088 234.599 70.8891 234.273 73.4022 232.002C72.8373 232.63 73.4738 233.92 71.8661 233.973C74.7013 233.997 74.7109 233.996 73.4834 231.93C73.5062 231.909 73.5294 231.891 73.5522 231.869L73.4806 231.901C72.9339 230.638 72.5094 229.167 70.322 230.677C70.6664 229.854 70.8249 229.304 71.1159 228.824C71.4108 228.338 71.7206 227.886 71.121 227.46C70.4953 227.016 70.0771 227.519 69.6963 227.865C68.0244 229.386 65.7404 229.816 63.7502 230.765C62.946 231.148 62.0095 231.243 60.8541 230.808C63.4706 230.162 65.5591 228.982 67.7299 227.909C70.597 226.491 69.8912 225.225 68.1323 223.656C67.9391 223.488 67.7465 223.319 67.5532 223.15C67.0872 221.085 66.5877 219.851 63.8201 221.504C60.6126 223.419 56.8607 224.321 52.9513 224.411C53.0286 229.14 56.8692 232.095 61.902 232.48ZM50.6696 222.404C52.0711 223.576 53.335 223.85 54.9665 223.562C58.3661 222.963 61.3133 221.201 64.5901 220.269C65.1419 220.112 66.0052 219.743 65.3255 218.758C64.7822 217.969 64.4384 217.255 63.2029 217.792C60.188 219.103 56.872 219.266 53.6646 219.833C53.0286 219.945 52.3507 219.849 51.4556 219.849C54.7455 218.298 58.265 218.468 61.4696 217.287C63.6933 216.467 63.8508 215.782 62.9625 214.154C62.7511 213.749 62.5391 213.345 62.3277 212.94C62.3277 211.989 62.3277 211.037 62.3277 210.025C57.7586 211.137 54.0555 211.14 51.0936 209.97C54.2368 209.784 57.1124 210.258 59.917 209.478C61.1678 209.13 62.0947 209.052 61.9322 207.359C61.735 205.309 60.3438 206.313 59.5056 206.319C56.1503 206.34 52.7644 206.852 49.5404 205.511C53.0412 205.737 56.5316 205.549 60.0216 205.562C62.5499 205.571 62.2658 203.938 62.1754 202.741C62.0544 201.131 60.6439 202.045 59.8022 202.183C56.5032 202.725 53.2224 203.103 49.9382 202.118C53.1929 202.028 56.4265 201.759 59.6402 201.362C61.3622 201.149 63.033 200.669 62.2504 198.433C58.3582 198.837 54.5227 199.415 49.9962 199.211C52.2603 198.038 54.1789 198.53 55.9577 198.292C57.8245 198.041 59.6931 197.935 61.519 197.376C62.2874 197.141 63.0966 197.159 62.8954 196.208C62.6744 195.162 61.8759 195.886 61.311 195.901C57.4028 196.007 53.4964 196.792 49.0534 195.828C52.6201 195.305 55.7315 195.728 58.8128 195.117C63.1915 194.247 63.2433 194.474 64.1685 190.322C64.7157 190.048 64.7009 189.605 64.5816 189.131C64.7225 188.366 64.8629 187.601 65.0493 186.589C62.8409 186.846 60.7086 186.973 58.6366 187.369C56.6516 187.749 54.6983 187.806 52.7865 187.307C51.1993 186.892 50.3633 187.411 49.8763 188.738C48.9943 189.513 49.4836 190.517 49.358 191.418C46.3994 198.768 45.7175 206.366 46.4972 214.124C46.5307 214.528 46.5642 214.933 46.5972 215.338C48.1043 217.603 48.3163 220.436 50.6696 222.404ZM52.3728 183.908C51.33 183.909 51.2368 184.669 51.0782 185.349C50.9055 186.089 51.2192 186.439 52.0642 186.584C56.3395 187.321 60.4978 186.232 64.6947 185.876C65.8273 185.78 65.5284 184.5 65.7182 183.908C61.2224 183.907 56.7976 183.906 52.3728 183.908ZM66.4837 180.926C66.865 179.551 66.7263 179.11 65.2295 179.333C60.4683 180.045 55.6883 180.507 50.6412 180.184C50.7145 182.606 51.7682 183.317 54.0721 183.102C57.3574 182.795 60.6791 182.782 63.986 182.743C65.4176 182.725 66.0876 182.354 66.4837 180.926ZM273.16 51.5684C270.887 47.1616 268.871 42.6391 266.82 38.1367C266.466 37.3585 266.499 36.4276 266.353 35.567C266.948 33.6295 265.143 32.3523 264.798 30.6739C264.099 29.8365 264.005 30.5148 263.82 31.0059C263.137 32.8154 262.448 34.6228 261.761 36.4313C261.598 36.2616 261.436 36.0919 261.274 35.9217C261.891 33.3208 262.508 30.7194 263.125 28.1185C263.309 28.5033 263.492 28.8887 263.685 29.2947C264.797 27.4793 264.797 27.4793 263.207 23.7239C262.912 23.1196 263.311 22.3203 262.476 21.7293C261.513 22.6127 261.181 23.7921 260.799 24.9017C258.685 31.0429 256.514 37.1645 253.994 43.1752C253.668 43.9523 253.492 44.7838 252.815 45.3886C252.585 42.7385 254.886 40.6995 255.107 37.6112C251.176 43.7657 247.573 49.4839 243.878 55.1499C242.385 57.44 240.691 59.6164 239.088 61.8446C238.807 61.8472 238.526 61.8504 238.245 61.8536C245.622 50.38 252.9 38.8567 258.838 26.6546C259.416 25.4657 260.192 24.3302 259.855 22.9182C259.787 22.6328 259.497 22.0275 260.042 22.0914C262.643 22.3959 261.338 20.5446 261.207 19.9293C260.929 18.6257 260.582 17.1698 259.081 16.4276C258.731 16.0681 258.381 15.7092 258.031 15.3497C256.132 12.3201 253.291 10.3096 249.89 8.94734C248.046 8.20883 246.35 7.2097 245.071 5.83999C241.849 2.38956 237.523 1.60717 233.024 1.28153C225.143 0.71113 219.138 4.26835 214.038 9.32003C212.945 10.4027 212.829 12.3264 211.434 13.4276C211.395 13.2246 211.265 13.1294 211.044 13.1421C211.057 12.8979 211.174 12.4961 211.067 12.4358C210.432 12.0764 210.329 12.6483 210.092 12.9904C208.254 15.6415 206.421 18.2947 204.562 20.9332C204.235 21.3973 204.189 22.1073 203.104 22.2786C204.434 18.6706 207.325 16.076 209.18 12.5045C204.261 14.9511 199.796 17.3971 195.491 20.0969C194.958 20.4304 194.373 20.7297 194.224 21.4275C192.804 28.0952 189.805 34.202 186.491 40.1963C186.448 40.274 186.391 40.3501 186.37 40.4336C184.6 47.732 179.904 53.934 177.538 61.0675C176.058 65.5303 175.25 70.0232 174.299 74.5372C174.1 74.1429 173.902 73.7485 173.704 73.3541C172.664 66.8868 176.279 61.2234 177.354 55.1203C177.611 53.6591 178.045 52.2255 178.398 50.7791C178.908 50.7638 179.29 50.9567 179.533 51.3791C179.175 52.8043 178.815 54.2295 178.302 56.2712C184.155 44.9725 187.313 33.3604 193.1 22.3758C186.414 27.9477 180.476 33.6147 178.276 41.769C176.272 42.0476 176.132 43.6985 175.524 45.0048C173.585 49.3042 171.439 53.472 168.216 57.127C165.381 60.3427 163.731 64.2372 161.787 67.9382C161.07 69.3037 162.367 70.9694 161.384 72.502C157.105 79.1776 158.347 86.6764 157.821 93.9087C157.634 96.4837 158.554 98.6184 160.365 100.663C164.582 105.426 167.805 110.789 170.996 116.204C173.73 120.84 173.883 126.065 175.887 130.815C177.96 135.726 178.739 140.796 178.368 146.048C178.256 147.649 177.936 149.125 177.064 150.559C173.34 156.688 172.473 163.243 173.743 170.03C175.25 170.415 176.541 166.382 177.935 170.096C178.048 170.399 178.609 169.703 178.995 169.554C181.857 168.445 184.645 167.099 187.862 167.076C188.563 167.07 189.346 167.163 189.474 167.821C189.59 168.419 188.883 168.567 188.276 168.644C186.733 168.838 186.389 170.805 183.891 170.845C185.188 170.182 185.956 169.79 186.724 169.397C180.084 168.697 175.312 173.177 175.044 179.624C176.635 177.889 178.107 176.372 179.472 174.775C181.322 172.61 184.264 172.455 186.681 171.373C188.557 170.532 190.163 169.914 190.392 167.687C190.568 165.974 192.024 164.756 192.96 163.366C195.315 159.865 194.362 156.548 192.276 153.478C190.878 151.422 190.13 149.456 190.866 147.119C191.849 144.004 192.881 140.901 193.916 137.8C195.93 131.762 197.084 125.601 197.115 119.265C197.12 118.015 198.405 117.371 198.941 116.308C202.012 110.214 205.404 104.179 211.54 100.266C214.959 98.086 218.324 95.7204 222.435 94.4717C225.82 93.4435 227.438 90.4673 229.126 87.7331C232.845 81.7125 237.425 76.3082 242.692 71.3934C244.512 69.6954 245.655 67.5418 247.051 65.5583C249.34 62.3056 253.367 61.4693 257.042 63.2809C259.631 64.5576 262.676 64.6263 265.45 65.2216C268.407 65.8559 271.151 66.891 273.976 67.75C275.526 68.2211 275.842 67.787 276.142 66.5299C277.431 61.1315 275.619 56.3367 273.16 51.5684ZM170.929 177.566C170.929 177.57 170.929 177.573 170.93 177.577C169.697 176.798 168.851 176.907 168.679 178.513C168.438 180.749 167.057 183.116 169.878 184.956C170.455 185.332 170.433 186.503 170.979 187.302C172.302 184.076 171.213 180.82 170.93 177.576C170.953 177.591 170.975 177.604 170.998 177.619C171 177.619 171.005 177.624 171.005 177.624C171.004 177.623 171.004 177.622 171.004 177.622C171.004 177.622 171.004 177.622 171.005 177.623L171.003 177.622C170.985 177.594 170.973 177.57 170.955 177.543C172.527 176.31 172.527 174.464 173.534 172.3C171.35 174.021 169.395 175.136 170.955 177.543C170.946 177.551 170.938 177.559 170.929 177.566ZM163.482 187.062C163.972 188.146 164.465 189.319 166.648 189.215C165.921 188.026 165.44 187.091 164.804 186.259C164.454 185.802 164.427 184.602 163.376 185.198C162.547 185.669 163.217 186.476 163.482 187.062ZM162.095 189.244C162.44 192.016 164.393 192.913 166.438 193.733C165.111 192.361 163.784 190.99 162.095 189.244ZM164.714 182.601C166.253 184.52 166.202 187.215 168.327 188.97C167.327 185.205 166.328 181.441 165.237 177.336C163.829 179.199 163.182 180.691 164.714 182.601ZM168.212 174.138C166.576 174.853 166.618 175.89 166.421 177.331C167.823 176.471 167.939 175.556 168.212 174.138ZM181.233 186.402C179.86 187.17 179.945 188.008 180.196 188.851C180.213 188.906 180.911 188.924 181.127 188.765C182.227 187.959 180.843 187.367 181.233 186.402ZM180.255 180.612C179.968 180.512 179.995 181.107 179.831 181.389C179.659 181.686 179.579 182.033 179.479 182.363C179.263 183.072 179.283 184.049 178.42 182.556C177.907 181.668 177.585 182.764 177.426 183.041C176.875 184.001 176.999 185.018 177.63 186.051C178.028 183.965 182.293 183.826 180.255 180.612ZM175.535 188.683C172.298 192.812 172.635 197.034 172.264 201.184C173.143 198.65 175.355 197.034 176.85 194.948C178.493 192.656 175.81 191.213 175.535 188.683ZM182.899 202.979C186.658 198.692 190.718 194.87 187.772 188.855C185.744 189.963 184.235 191.669 182.862 193.469C181.896 194.736 183.517 195.903 183.128 197.347C182.672 199.037 182.18 200.9 182.899 202.979ZM182.834 205.792C184.638 205.441 185.409 204.311 185.63 202.522C184.032 203.273 183.598 204.656 182.834 205.792ZM197.93 207.991C198.874 208.46 203.138 207.326 203.378 206.48C203.447 206.24 203.165 205.861 202.952 205.613C202.372 204.937 201.509 205.003 200.905 205.368C199.559 206.182 198.073 205.994 196.638 206.089C195.612 206.158 194.581 206.051 194.126 204.864C193.356 202.856 192.197 204.782 192.019 205.001C190.804 206.491 190.82 206.572 189.785 205.117C189.409 204.588 189.131 204.041 188.384 204.162C188.188 204.194 188.106 204.725 187.933 205.006C187.147 206.285 188.427 205.876 188.949 206.114C189.301 206.274 191.83 209.28 192.164 209.687C193.085 210.81 195.097 210.799 195.286 210.08C195.886 207.796 197.241 209.978 198.309 209.185C197.932 208.792 197.541 208.385 196.85 207.665C197.503 207.859 197.735 207.894 197.93 207.991ZM209.761 196.834C204.593 195.524 201.454 199.151 197.543 200.792C197.144 200.96 197.019 201.246 197.081 201.635C197.188 202.309 197.746 202.346 198.312 202.487C203.763 203.835 206.513 202.51 209.761 196.834ZM204.637 207.656C205.42 208.674 206.569 208.84 207.897 208.905C207.749 208.59 207.717 208.352 207.606 208.314C206.636 207.981 206.066 206.894 204.868 207.049C204.755 207.064 204.555 207.55 204.637 207.656ZM197.697 180.257C198.667 178.325 197.573 176.978 196.32 175.275C194.794 177.808 198.705 178.216 197.697 180.257ZM194.287 188.841C197.093 189.455 199.036 188.922 200.041 187.398C203.566 182.054 203.669 180.272 200.648 176.707C198.49 180.721 199.889 186.268 194.287 188.841ZM186.463 187.346C187.459 187.566 188.679 186.31 189.022 187.945C189.116 188.394 188.777 189.122 189.589 189.198C190.293 189.264 190.838 188.854 191.107 188.217C192.225 185.562 193.97 183.107 194.283 179.695C191.003 181.954 188.656 184.456 186.463 187.346ZM187.954 182.463C186.262 182.708 185.868 183.894 185.138 184.737C185.101 184.78 185.372 185.188 185.561 185.241C186.257 185.439 187.007 184.58 187.954 182.463ZM194.807 198.845L194.806 198.846C194.807 198.846 194.807 198.845 194.807 198.845C194.807 198.846 194.807 198.846 194.807 198.846L194.808 198.844C194.82 198.839 194.829 198.832 194.841 198.827C194.149 199.808 193.456 200.789 192.735 201.81C194.839 201.63 197.195 199.222 197.616 196.878C196.288 197.047 195.924 198.387 194.841 198.827C194.854 198.81 194.866 198.792 194.878 198.775C194.862 198.775 194.848 198.778 194.831 198.779C195.212 197.749 195.354 196.96 193.588 197.164C192.294 197.313 190.922 197.026 189.724 197.679C188.387 198.407 187.386 199.727 188.14 200.916C188.977 202.236 190.567 201.549 191.866 200.928C193.011 200.381 193.305 198.835 194.832 198.779C194.823 198.801 194.816 198.823 194.807 198.845ZM199.591 190.278C197.342 190.04 195.454 191.217 193.304 190.325C192.107 189.829 191.478 191.515 190.668 192.303C189.923 193.028 189.732 194.402 190.238 194.677C191.633 195.438 193.371 195.496 194.828 194.636C196.631 193.571 198.224 192.246 199.591 190.278ZM188.903 174.902C190.353 174.598 190.121 173.169 190.764 172.315C190.999 172.004 190.514 171.535 190.214 171.699C189.166 172.273 188.624 173.29 188.011 174.149C187.988 174.817 188.433 175 188.903 174.902ZM190.551 177.229C191.502 175.188 194.873 174.159 193.388 170.947C190.958 172.52 190.756 174.875 190.551 177.229ZM192.052 179.569C194.964 178.482 194.483 176.219 194.882 174.219C192.539 175.347 192.37 177.363 192.052 179.569ZM201.368 190.823C200.87 191.257 200.187 191.913 200.698 192.662C201.089 193.235 201.901 192.996 202.536 193.052C205.436 193.305 208.157 191.931 209.215 190.01C210.639 187.423 210.579 184.179 208.259 181.195C207.662 182.297 207.085 183.087 206.789 183.959C205.811 186.834 203.639 188.842 201.368 190.823ZM199.96 196.797C201.638 195.69 202.908 194.319 204.897 194.407C200.921 193.762 200.921 193.762 199.96 196.797ZM187.721 177.719C187.858 177.324 188.288 176.958 188.041 176.544C187.745 176.048 187.222 176.373 186.794 176.431C183.392 176.895 182.189 178.557 182.162 182.812C184.369 181.452 186.811 180.331 187.721 177.719ZM186.733 173.436C185.393 173.573 184.242 173.9 183.937 175.198C183.914 175.299 184.131 175.559 184.231 175.557C185.709 175.524 185.836 174.079 186.733 173.436ZM288.304 75.3672C287.073 75.5459 285.644 74.7593 284.354 74.2962C283.384 73.9483 282.559 73.8447 281.835 74.6641L281.809 74.515L281.647 74.514C282.032 72.9703 280.627 72.5374 279.688 72.558C278.165 72.5918 277.226 71.819 276.33 71.0482C273.601 68.6989 270.257 67.7818 266.76 67.0343C263.105 66.2529 259.44 65.442 255.885 64.3467C252.843 63.4099 249.901 63.8275 248.468 66.4253C245.834 71.1999 241.639 74.7619 237.897 78.6368C234.686 81.962 233.633 86.1932 231.352 89.8863C229.474 92.9254 227.944 95.5121 223.33 95.9794C219.542 96.3632 216.442 99.2046 213.903 102.126C212.177 104.111 211.125 106.543 209.075 108.298C209.404 105.935 211.404 104.349 212.946 101.684C210.293 103.234 208.353 104.455 207.341 106.405C205.849 109.282 203.677 111.719 201.901 114.405C201.313 115.293 200.666 116.269 200.514 117.266C199.615 123.148 197.301 128.795 197.164 134.798C196.252 135.333 196.226 136.244 196.041 137.087C195.275 139.199 194.717 141.403 193.696 143.403C191.96 146.801 192.174 149.65 194.998 152.565C198.355 156.032 197.916 162.79 194.473 166.498C193.674 165.825 194.966 165.246 194.505 164.459C192.763 165.847 191.816 167.467 191.969 169.587C192.653 169.691 192.886 169.257 193.222 168.981C193.692 168.594 194.03 167.888 194.841 168.204C195.742 168.556 195.62 169.278 195.489 170.006C195.276 171.186 195.187 172.154 196.651 172.991C197.975 173.749 197.807 175.633 198.641 176.846C199.21 176.689 199.265 176.419 199.15 176.026C198.938 175.304 198.934 174.412 199.734 174.204C200.488 174.008 201.192 174.801 201.41 175.407C202.083 177.276 204.1 178.573 203.987 180.759C203.958 181.328 204.161 181.75 204.91 181.84C205.649 181.929 206.118 181.533 206.112 181.033C206.097 179.787 206.971 179.612 207.935 179.501C209.319 179.34 209.699 180.407 210.08 181.247C211.449 184.267 211.333 187.416 210.544 191.342C214.267 187.062 219.795 187.368 223.662 184.587C224.852 186.055 226.102 184.743 227.083 184.433C230.195 183.449 232.869 181.852 233.548 178.478C233.671 177.866 233.594 176.874 234.835 177.64C234.982 177.731 235.429 177.627 235.561 177.479C237.71 175.053 241.589 173.75 242.523 170.906C243.125 169.075 244.42 168.636 245.322 167.522C245.917 168.213 245.225 168.925 245.361 169.623C244.549 170.246 243.736 170.869 242.923 171.492C243.091 171.673 243.259 171.853 243.427 172.034C246.711 170.532 249.995 169.029 253.28 167.527C254.036 168.062 254.789 168.648 255.664 167.69C262.8 165.553 270.194 164.658 277.582 163.719C278.989 163.54 280.549 163.531 281.706 162.671C285.085 160.161 289.281 159.094 292.943 157.027C297.575 154.414 298.74 150.521 299.419 146.169C299.577 145.152 299.351 144.072 299.229 143.029C299.062 141.603 298.307 142.637 297.775 142.731C299.435 140.638 298.102 138.6 297.592 136.547C297.42 136.131 297.248 135.715 297.077 135.298C297.112 133.036 297.147 130.774 297.183 128.513C296.877 128.486 296.57 128.458 296.263 128.432C299.405 126.053 298.247 123.165 297.398 119.859C294.96 122.437 292.767 124.758 290.573 127.078C291.385 124.597 293.415 122.946 295.06 121.073C296.515 119.417 296.472 118.167 294.867 116.79C293 115.19 291.98 113.111 291.248 110.921C290.099 107.486 290.895 106.085 294.051 104.157C299.15 101.041 302.421 96.9711 301.725 90.8114C301.19 86.0716 299.539 81.6607 296.062 78.3841C294.299 76.7211 291.664 74.8793 288.304 75.3672ZM310.429 123.6C309.736 120.866 308.948 118.152 308.132 115.447C306.655 110.551 307.633 105.847 308.711 100.976C310.009 95.1098 308.457 89.1488 306.28 83.7155C304.973 80.4517 301.808 77.5352 297.3 76.5656C297.839 79.276 300.335 80.7155 301.277 83.0568C303.976 89.7636 304.804 96.1591 299.329 102.111C297.998 103.557 296.306 104.496 294.613 105.423C292.538 106.56 292.189 108.14 292.717 110.125C293.344 112.484 294.573 114.55 296.308 116.329C299.941 120.055 300.933 124.236 299.223 129.036C298.131 132.099 298.121 134.973 299.619 138.192C301 141.156 301.006 144.689 301.117 148.029C300.162 150.154 299.208 152.279 297.979 155.016C301.287 153.089 300.842 150.289 301.613 148.012C303.789 145.068 305.676 141.956 307.858 139.005C311.31 134.339 311.812 129.047 310.429 123.6ZM301.703 260.458C304.628 258.311 308.087 258.906 311.102 257.513C314.397 255.991 318.217 255.486 321.73 254.333C325.455 253.111 327.951 250.2 330.995 248.045C336.006 244.496 339.941 240.08 343.157 235.046C344.575 232.826 345.841 230.414 348.519 229.095C348.913 228.901 348.923 228.033 349.144 227.377C346.901 227.54 344.744 227.697 342.588 227.853C342.569 227.693 342.576 227.534 342.607 227.376C348.397 227.591 352.822 225.732 354.727 220.273C356.296 215.776 359.632 212.645 363.57 209.936C363.576 209.939 363.581 209.941 363.587 209.944C371.451 204.25 375.159 196.259 377.817 187.686C378.671 187.284 377.639 186.947 377.773 186.57C382.624 184.413 384.059 177.625 380.681 172.816C380.28 172.321 380.28 171.566 379.537 171.292C374.32 168.378 370.714 163.242 364.796 161.429C358.562 159.518 351.989 158.783 345.49 157.899C344.991 157.831 344.499 158.179 343.997 157.657C341.386 154.943 338.343 153.491 334.359 154.982C334.125 155.07 333.802 154.952 333.521 154.93C333.338 154.783 333.154 154.636 332.971 154.489C333.059 154.458 333.147 154.425 333.236 154.395C334.648 153.9 337.068 154.286 337.302 152.93C337.561 151.432 335.923 149.994 334.597 148.811C332.348 146.801 329.483 145.862 326.686 144.872C321.678 143.099 316.468 141.967 311.2 141.068C309.524 140.782 308.164 141.368 307.281 142.609C305.12 145.647 302.334 148.424 302.002 152.313C301.779 154.915 300.028 156.452 297.756 157.487C295.223 158.641 292.62 159.72 289.941 160.527C286.426 161.587 283.404 163.47 280.206 165.067C279.684 165.565 278.681 164.434 278.339 165.543C272.153 166.06 265.993 166.606 260.078 168.629C257.936 169.361 255.49 169.302 253.307 169.961C245.545 172.307 238.372 175.644 233.505 182.038C231.165 185.111 227.655 186.271 224.292 187.667C219.55 189.637 214.695 191.371 210.203 193.831C209.348 194.299 208.532 194.829 207.609 195.385C209.536 196.5 210.985 194.751 213.121 195.192C212.26 196.187 211.477 196.969 210.858 197.851C210.421 198.475 209.247 199.181 210.7 199.975C210.74 200.15 210.78 200.324 210.82 200.499C210.344 201.816 209.097 202.27 207.893 202.786C205.437 203.837 205.261 205.437 207.451 207.006C207.969 207.377 208.562 207.699 209.174 207.905C217.671 210.758 226.017 214.194 234.742 216.197C240.122 217.433 246.005 218.196 251.764 217.041C255.815 216.229 259.913 215.677 263.847 214.332C268.467 212.752 273.137 214.198 277.478 215.266C284.049 216.881 290.094 219.843 295.079 224.395C298.426 227.451 300.484 231.178 301.912 235.221C303.285 239.111 301.67 242.584 297.256 245.588C292.928 248.533 288.179 250.526 282.712 250.723C282.163 250.742 281.672 250.752 281.16 251.145C279.146 252.693 276.815 253.773 274.343 254.638C276.038 256.711 277.53 258.693 279.196 260.539C282.182 263.847 286.332 264.2 290.433 263.581C294.308 262.997 298.626 262.717 301.703 260.458ZM211.398 211.251C215.851 214.014 220.872 215.15 226.612 215.76C221.726 212.702 216.462 212.298 211.398 211.251ZM266.382 272.24C266.386 272.267 266.394 272.291 266.398 272.317C265.146 273.418 266.768 274.015 266.97 274.862C266.32 275.279 265.809 274.158 265.379 274.626C265.143 274.881 265.418 275.613 265.574 276.098C266.234 278.15 268.234 279.192 269.723 280.926C269.925 279.562 268.702 279.167 268.334 278.355C267.839 277.263 268.638 277.455 269.289 277.476C270.524 278.671 272.419 279.692 272.847 281.099C273.587 283.535 275.54 284.406 277.397 285.625C279.531 287.026 281.559 288.564 283.672 289.994C285.685 291.357 287.852 292.369 290.44 292.394C291.079 292.4 291.731 292.618 292.35 292.813C302.021 295.862 312.249 296.88 322.03 299.907C317.107 295.438 314.557 289.284 309.076 285.368C306.989 283.876 305.869 281.678 304.891 279.505C302.461 274.102 297.823 270.973 292.596 268.121C289.36 266.355 285.862 265.863 282.538 264.723C279.195 263.576 275.684 261.888 273.255 259.064C273.271 259.064 273.282 259.06 273.298 259.06C273.283 259.038 273.265 259.021 273.249 259C274.826 259.14 275.643 260.521 277.004 261.014C275.705 257.978 273.741 257.002 270.8 257.929C270.663 257.935 270.524 257.946 270.382 257.964C270.373 258.001 270.371 258.035 270.365 258.071C269.064 258.522 267.705 258.969 270.013 260.082C271.111 260.612 272.078 261.287 272.884 262.161C272.496 262.25 271.681 262.23 272.064 262.759C272.89 263.901 273.693 265.339 275.677 264.707L275.526 264.85L275.693 264.707C275.979 266.169 275.134 266.586 273.754 266.508C272.693 267.043 273.467 267.442 273.886 267.833C275.362 269.214 276.782 270.67 278.892 271.248C279.405 271.715 279.775 272.39 280.666 272.305C280.996 273.887 283.036 274.052 283.669 275.383C282.708 275.226 282.332 275.89 281.901 276.475C280.087 273.62 277.003 272.125 274.169 270.416C273.37 269.934 274.127 270.941 273.863 271.148C273.693 271.331 273.524 271.513 273.354 271.695C270.411 270.106 268.588 267.114 265.242 265.838C268.33 270.239 272.482 273.532 276.112 277.267C276.79 277.965 277.152 278.098 277.203 276.977C279.064 278.279 279.29 280.57 280.676 282.223C276.413 280.169 274.474 275.76 270.518 273.413C269.993 273.331 269.835 273.608 269.821 274.027C267.298 270.984 264.716 267.994 261.416 265.603C262.222 268.408 265.369 269.662 266.445 272.271C266.445 272.272 266.382 272.24 266.382 272.24ZM266.91 262.248C267.281 262.323 267.806 262.63 267.902 261.882C268.001 261.123 268.417 260.822 269.191 260.867C268.583 260.327 268.016 259.632 267.095 260.244C266.658 260.534 266.198 260.961 266.05 261.412C265.911 261.834 266.447 262.153 266.91 262.248ZM265.636 262.437C265.342 262.047 264.9 262.064 264.482 262.477C263.944 263.008 264.196 263.317 264.652 263.741C265.728 264.744 267.157 265.168 268.715 266.041C268.423 263.939 266.514 263.603 265.636 262.437ZM268.719 262.634C269.414 264.536 270.883 265.428 272.912 265.592C271.515 264.606 270.117 263.62 268.719 262.634ZM176.133 229.523C176.185 236.969 175.689 244.437 177.184 251.823C177.462 253.198 177.859 254.557 178.053 255.941C178.319 257.841 179.122 258.248 181.251 257.854C183.358 257.464 183.133 256.567 182.813 255.251C181.563 250.104 180.783 244.91 181.113 239.613C181.649 238.213 180.813 236.669 181.634 235.299C181.921 241.534 182.115 247.77 183.391 253.933C183.845 256.131 184.161 258.052 187.395 257.526C188.267 257.384 189.242 257.79 190.169 257.943C190.597 257.955 191.024 257.967 191.451 257.979C193.771 259.189 196.065 257.786 198.378 257.894C198.814 257.914 198.71 257.349 198.755 257.018C198.925 256.826 199.093 256.634 199.263 256.442C200.955 257.098 205.008 256.001 205.599 254.692C205.648 254.583 205.275 254.31 205.099 254.113C205.242 253.833 205.386 253.552 205.529 253.27C206.868 255.368 208.964 254.147 210.746 254.299C211.308 254.39 211.686 254.178 211.896 253.692C213.572 253.689 214.805 252.883 216.011 251.891C216.628 251.384 216.948 250.349 218.108 250.566C218.09 250.584 218.077 250.6 218.059 250.618C218.108 250.632 218.155 250.64 218.203 250.654C218.943 251.565 218.225 252.096 217.549 252.703C215.786 254.285 213.586 255.266 211.297 255.588C208.544 255.975 206.095 257.05 202.858 257.951C210.129 261.596 214.633 268.802 224.734 266.783C233.632 265.005 243.001 265.684 252.127 265.02C258.182 264.579 263.314 261.353 267.848 257.529C270.695 255.127 273.587 252.76 277.449 251.773C278.237 251.572 279.158 251.01 278.87 250.095C278.616 249.291 277.584 249.463 276.873 249.514C270.181 249.999 263.865 248.208 257.532 246.679C254.422 245.928 251.876 243.891 249.179 242.372C242.871 238.82 240.905 238.558 234.804 242.204C232.591 243.527 230.61 244.969 228.879 246.918C226.2 249.937 222.756 251.931 218.203 250.655C218.18 250.627 218.161 250.6 218.135 250.572C218.126 250.569 218.118 250.569 218.108 250.568C219.635 249.074 217.811 248.917 217.013 248.352C217.023 248.118 217.033 247.885 217.043 247.651C218.336 248.093 219.683 248.406 220.806 249.221C221.972 250.068 222.884 249.125 223.834 248.732C225.175 248.177 223.447 247.528 223.807 246.916C226.528 247.998 227.473 245.998 228.665 244.463C229.238 243.725 228.837 243.437 228.016 243.218C221.5 241.476 215.861 238.265 210.733 234.212C212.1 233.244 211.925 232.908 209.207 231.616C210.175 232.314 209.245 233.49 210.133 234.209C211.944 237.179 215.123 239.095 216.994 242.034C207.623 234.686 201.338 224.53 191.411 217.682C192.016 216.579 192.705 217.938 193.211 217.655C193.301 216.239 192.739 215.175 191.541 214.33C191.163 214.064 189.826 213.469 191.439 212.912C193.428 215.46 196.047 217.804 199.028 218.641C201.833 219.427 203.036 221.957 205.719 222.459C204.961 223.569 205.812 223.886 206.701 224.186C209.552 226.022 212.433 227.82 215.243 229.71C216.805 230.76 218.496 231.394 220.385 231.625C220.998 232.115 221.612 232.604 222.225 233.094C227.338 235.397 232.914 237.925 238.216 237.871C244.574 237.807 248.791 240.729 253.681 243.113C260.361 246.369 267.483 248.023 275.055 247.829C276.305 247.797 277.479 248.086 278.684 248.326C284.079 249.401 289.203 248.846 293.723 245.703C294.914 244.874 296.466 244.844 297.484 243.527C301.646 238.136 301.988 235.735 297.6 230.216C296.296 228.576 295.456 226.624 293.757 225.2C287.535 219.985 280.153 217.145 272.042 215.718C267.868 214.985 263.922 215.322 259.966 217.062C256.785 218.46 252.904 217.596 249.659 219.169C249.658 219.17 249.658 219.17 249.658 219.171C249.657 219.171 249.653 219.17 249.654 219.17C248.64 218.541 247.577 218.941 246.533 219.066C241.699 219.64 237.01 219.056 232.235 218.161C228.385 217.439 224.469 216.896 220.581 216.276C214.063 215.236 208.637 212.213 203.271 208.977C202.555 208.545 202.183 208.276 201.342 208.741C200.315 209.308 200.74 209.809 201.138 210.41C200.93 210.412 200.723 210.415 200.515 210.417C199.936 210.04 199.356 209.7 198.768 210.406C198.421 210.575 198.073 210.744 197.725 210.914C196.326 210.73 195.231 211.849 193.289 211.377C198.514 215.624 203.988 218.254 209.841 220.458C209.939 219.33 208.833 219.389 208.494 218.819C208.49 218.569 208.486 218.319 208.481 218.069C213.053 221.291 217.779 223.213 223.927 223.438C233.004 223.77 241.481 222.747 249.652 219.184C249.649 219.193 249.646 219.198 249.643 219.206C247.021 221.793 243.391 222.411 239.981 223.447C238.848 223.792 237.678 224.032 236.536 224.632C237.572 224.632 238.608 224.632 239.644 224.632C240.221 224.799 240.797 224.967 241.374 225.135C236.765 225.525 232.141 225.64 227.532 225.372C224.954 225.223 222.403 224.632 219.848 224.204C218.294 223.944 219.117 224.713 219.261 225.192C219.258 225.19 219.254 225.188 219.251 225.186C219.238 225.216 219.231 225.243 219.224 225.27C216.607 224.88 214.792 222.953 212.223 222.262C208.682 221.31 205.309 219.503 201.837 218.544C197.623 217.38 195.399 213.735 191.371 212.679C190.513 211.497 189.523 210.794 188.043 211.896C188.852 211.176 188.858 210.648 187.669 210.308C186.636 210.013 185.626 209.649 184.606 209.315C184.411 208.815 184.064 208.456 183.504 208.297C180.969 211.496 179.758 215.394 177.525 218.662C175.204 222.058 175.789 225.465 175.599 228.955C175.778 229.143 175.956 229.333 176.133 229.523ZM233.884 240.511C227.773 239.47 222.06 237.414 216.194 235.423C217.317 236.148 218.402 236.933 219.575 237.581C220.781 238.247 222.134 238.69 223.309 239.394C224.617 240.177 226.693 240.021 227.04 242.147C227.101 242.523 228.789 242.669 229.848 242.955C229.661 241.942 228.483 242.429 228.421 241.584C230.255 241.386 232.414 242.94 233.884 240.511ZM221.391 235.666C217.682 233.224 213.925 230.876 210.437 228.133C206.813 225.284 202.684 222.99 198.776 220.453C204.757 227.584 212.164 232.817 221.391 235.666ZM236.617 239.005C231.438 237.277 226.173 235.781 221.031 233.797C225.761 236.671 230.453 239.832 236.617 239.005ZM176.413 215.272C175.88 216.243 175.748 217.017 176.448 218.038C177.297 216.971 177.538 216.193 176.413 215.272ZM176.27 205.394C177.704 206.073 179.598 205.117 181.047 206.665C178.852 204.685 181.9 203.612 181.605 201.934C181.28 200.089 181.531 198.156 181.531 196.153C177.524 197.662 176.6 201.305 174.994 204.431C174.548 205.299 175.774 205.159 176.27 205.394ZM171.722 254.872C170.88 249.351 170.803 243.832 171.655 238.33C172.504 232.843 173.424 227.365 174.357 221.612C170.702 227.163 168.749 251.054 171.722 254.872ZM165.044 235.076C165.968 226.359 169.695 218.71 174.94 211.585C168.644 218.265 165.16 226.045 165.044 235.076ZM165.445 199.67C166.191 200.227 167.688 201.37 168.542 200.099C169.4 198.822 169.815 197.103 168.218 195.767C167.942 195.535 167.618 195.322 167.275 195.193C164.431 194.122 161.39 193.294 160.427 189.937C159.911 194.276 162.203 197.251 165.445 199.67ZM130.002 150.054C130.045 150.58 130.087 151.106 130.129 151.632C129.941 151.834 129.752 152.037 129.563 152.24C129.317 152.052 129.64 151.424 129.017 151.575C128.859 151.614 128.674 152.002 128.705 152.203C129.509 157.448 128.421 162.934 132.005 167.813C134.531 171.252 136.303 175.18 138.798 178.685V178.685C138.798 178.685 138.798 178.685 138.797 178.685C138.494 178.712 138.19 178.74 137.886 178.767C134.469 174.315 130.765 170.03 128.356 164.863C128.356 165.435 128.249 166.028 128.373 166.576C129.424 171.208 128.521 176.175 131.09 180.543C132.315 182.628 133.727 184.446 136.207 185.583C139.223 186.966 141.276 189.422 142.891 192.173C146.117 197.666 153.137 201.185 160.262 198.613C157.252 194.624 158.059 190.242 158.7 185.854C158.991 183.859 159.665 183.053 161.737 184.932C160.959 180.3 162.833 176.68 165.765 173.516C166.585 172.631 166.255 172.239 165.835 171.552C163.862 168.334 161.146 165.524 159.784 161.956C160.254 164.554 160.223 167.318 163.275 169.123C161.778 169.118 160.833 169.277 160.418 167.915C158.633 162.052 157.145 156.105 154.874 150.374C154.801 150.19 154.945 149.933 155.024 149.698C156.783 151.392 156.749 153.814 157.852 155.779C158.321 156.614 158.636 157.524 159.394 158.291C157.876 152.017 156.353 145.745 154.842 139.47C154.334 137.361 153.723 135.263 153.418 133.127C153.269 132.092 152.878 131.325 152.172 130.609C152.57 129.922 153.415 129.265 152.333 128.481C152.084 126.34 150.994 124.341 151.09 122.142C151.438 121.973 151.784 121.803 152.131 121.634C155.726 132.548 157.702 143.78 159.573 155.022C160.77 162.214 162.527 166.285 167.434 171.874C168.017 170.662 166.862 169.722 166.982 168.65C167.119 168.485 167.255 168.319 167.392 168.153C167.748 169.055 168.067 169.973 168.473 170.855C168.783 171.528 168.461 172.758 170.091 172.344C171.325 172.03 172.501 171.811 172.128 170.272C171.328 166.973 171.592 163.623 171.444 160.288C171.322 157.562 171.83 154.985 173.348 152.698C176.585 147.819 176.854 142.446 175.924 137.12C175.395 134.088 174.199 131.063 173.163 128.087C171.493 123.288 170.26 118.339 167.919 113.759C167.24 112.43 166.432 111.035 165.301 110.052C162.047 107.225 160.671 103.242 157.914 100.137C154.201 95.9545 152.53 90.7215 149.545 86.152C147.066 82.3569 145.09 78.2668 143.059 74.2343C141.72 71.5753 141.474 68.9025 142.21 65.8284C142.798 63.3718 142.74 60.356 140.581 57.6964C138.992 61.4735 138.139 65.2591 136.46 68.7735C135.256 71.293 134.245 73.7443 130.864 74.4484C129.156 74.8042 128.821 76.1353 128.991 77.7408C129.334 80.9835 130.803 83.9735 131.241 87.1823C131.061 87.5492 131.318 88.1175 130.665 88.2671C129.507 84.6221 128.031 81.0432 128.142 77.1434C128.188 75.4988 127.233 75.5025 125.989 76.1247C125.051 75.8546 124.381 76.4282 123.636 76.7676C122.735 76.6106 122.081 76.9589 121.587 77.6345C121.421 78.0004 121.255 78.3662 121.09 78.732C120.841 78.2176 120.827 77.4426 119.888 77.6303C119.066 77.7947 118.921 78.4138 119.151 79.0307C119.719 80.5526 120.366 82.0481 120.982 83.5542C119.604 83.3586 120.077 81.741 118.789 81.2642C118.95 82.4087 119.03 83.4533 120.186 84.0998C120.23 84.1775 120.251 84.2912 120.32 84.3282C127.35 88.1307 129.152 94.7376 130.992 101.324C130.989 101.428 131.018 101.548 131.095 101.694C131.081 104.781 132.233 107.787 131.829 110.901C131.655 112.627 131.482 114.352 132.106 116.029C131.939 115.449 132.03 114.847 132.06 114.262C132.089 113.71 131.67 112.865 132.538 112.682C133.383 112.503 133.861 113.201 134.175 113.867C134.325 114.186 134.348 114.548 134.45 114.886C136.219 120.783 138.102 126.648 139.923 132.531C137.131 126.08 135.699 119.198 132.902 112.764C132.675 112.821 132.448 112.877 132.221 112.933C132.221 114.068 132.221 115.204 132.221 116.339C132.352 118.452 132.283 120.587 133.008 122.636C133.321 124.234 133.635 125.832 133.949 127.43C133.442 127.241 132.801 126.936 132.85 127.829C132.914 128.997 133.058 130.177 133.925 131.135C135.221 136.264 136.889 141.292 138.674 146.289C138.412 146.54 138.15 146.792 137.888 147.043C136.553 147.021 136.656 145.89 136.332 145.18C134.443 141.028 133.043 136.72 131.623 132.386C131.169 134.893 132.849 137.073 132.964 139.484C132.775 140.057 132.95 140.755 132.303 141.173C131.367 139.266 130.527 137.341 131.402 134.631C129.132 136.266 128.96 137.892 129.697 139.65C131.467 143.874 133.283 148.082 135.155 152.268C136.129 154.445 137.056 156.625 137.546 158.946C137.545 158.946 137.546 158.947 137.545 158.947C137.545 158.946 137.545 158.945 137.545 158.944C136.279 158.359 136.19 157.098 135.782 156.083C133.579 150.61 130.472 145.476 128.938 139.279C127.954 142.3 127.992 142.285 129.202 145.024C129.623 145.979 129.804 147.025 130.095 148.029C127.986 148.623 130.167 149.384 130.002 150.054ZM131.752 128.715C132.29 127.206 132.858 125.697 132.096 124.128C131.557 125.638 131.189 127.155 131.752 128.715ZM125.17 149.3C125.215 149.09 125.089 148.801 124.966 148.513C123.489 145.446 126.351 142.182 124.487 139.125C124.418 139.012 124.464 138.75 124.564 138.65C129.371 133.828 128.971 133.79 129.624 128.116C130.112 123.88 129.622 119.681 130.025 115.498C130.706 108.436 128.577 101.963 126.103 95.4333C124.962 92.4201 123.064 90.112 120.86 87.8917C118.896 85.9114 117.868 83.4358 116.538 81.1336C115.326 79.0333 117.273 76.3748 120.307 75.7663C123.253 75.1758 126.243 74.7471 128.965 73.4424C130.228 72.8371 132.692 73.296 131.747 70.722C131.72 70.6491 131.982 70.3858 132.027 70.4028C134.899 71.487 134.615 68.8522 135.059 67.8182C136.735 63.9137 138.025 59.8654 139.639 55.3714C135.081 57.044 130.466 57.1804 126.212 58.575C121.496 60.1218 116.642 61.3387 112.1 63.3459C111.722 63.513 111.184 63.3676 110.72 63.3676C110.346 63.0636 109.972 62.7591 109.598 62.4552C109.986 62.0883 110.373 61.7209 110.76 61.354C111.115 60.8259 111.47 60.2983 111.824 59.7702C111.931 61.067 112.383 61.7146 113.962 61.059C121.484 57.9343 129.755 57.0176 137.376 54.2639C139.765 53.4001 140.502 53.9673 141.444 55.631C142.63 57.727 143.918 59.7729 145.162 61.8404C143.401 62.8088 144.544 64.3562 144.29 65.6254C142.714 69.7731 143.837 73.4546 146.456 76.9235C147.528 78.344 148.434 79.8728 149.416 81.3525C149.905 82.0809 149.671 83.9148 151.53 82.5482C152.967 85.5266 152.981 89.0246 155.447 91.7767C156.315 90.287 154.986 89.1097 155.003 87.8193C157.417 86.1488 155.892 83.863 156.082 81.8451C156.008 80.1514 156.259 78.4603 156.993 76.9478C161.008 68.6741 157.004 62.1533 151.651 56.0444C145.54 49.0706 136.4 46.8534 128.088 43.2455C122.461 40.8032 116.368 40.1878 110.675 38.1922C107.834 37.1968 105.498 35.4512 103.181 33.7675C96.6098 28.9912 89.2122 26.3417 80.9781 25.3944C78.5901 25.1195 74.3944 28.9653 74.495 32.2392C74.2534 32.2492 74.0125 32.2593 73.771 32.2693C70.5419 33.6507 70.2021 34.3712 71.5438 37.0641C71.5211 37.0419 71.4995 37.0192 71.4767 36.997C71.4955 37.0255 71.5148 37.054 71.5336 37.0821C68.8029 35.0457 67.2878 35.3349 65.5051 38.3941C63.3922 42.0201 63.1807 45.6434 65.8165 49.1546C65.8091 49.1573 65.8029 49.1572 65.7949 49.1599C65.8074 49.1858 65.8227 49.2101 65.8358 49.236C64.8038 49.161 64.6413 48.0201 63.5933 47.6506C62.717 55.3254 59.0867 62.202 56.9527 69.485C55.0478 75.9868 55.6548 82.3701 58.0967 88.6588C59.7613 92.9455 61.5571 97.1614 64.7628 100.711C67.4691 103.707 70.796 105.812 74.599 107.538C82.2983 111.031 90.8728 112.717 98.2635 117.203C97.3793 116.215 96.4615 115.25 95.6266 114.226C95.264 113.781 94.2997 113.46 95.0276 112.635C95.6698 113.285 96.6035 111.455 97.4617 113.173C98.8972 116.044 100.885 118.738 104.276 120.377C103.803 117.901 101.868 116.331 101.025 114.256C101.055 113.998 101.085 113.739 101.115 113.481C101.692 114.034 102.269 114.587 102.847 115.14C103.456 116.86 104.694 117.831 106.671 117.926C106.998 119.268 107.454 120.57 108.209 121.737C107.102 122.616 107.452 120.561 106.414 121.301C107.283 123.156 108.458 124.877 109.992 126.441C108.089 119.176 105.815 112.029 102.179 105.31C101.17 103.373 100.161 101.435 99.1518 99.4975C98.679 98.7859 97.9641 98.1754 98.0623 97.227C99.4979 96.8971 98.6636 95.8811 98.7938 95.1563C98.8034 95.1605 98.8097 95.1663 98.8193 95.17C98.8239 95.1722 98.8267 95.1748 98.8313 95.1769C102.8 102.456 105.553 110.18 108.425 117.86C108.512 118.094 108.6 118.328 109.264 118.441C107.841 112.986 106.418 107.532 104.995 102.077C105.97 100.541 105.35 99.156 104.526 97.79C103.465 91.5362 101.331 85.599 98.4511 79.8765C98.2215 79.4198 98.2448 78.8531 98.1505 78.3371C98.1476 77.5711 98.1453 76.8046 98.1425 76.0386C98.1402 73.0311 97.9913 70.0068 99.3217 67.1521C100.035 66.7123 99.9713 66.0261 99.9764 65.3622C100.501 65.2432 101.025 65.1248 101.55 65.0059C102.005 65.2289 102.185 65.5964 102.184 66.0573C98.4255 70.5682 100.209 75.4745 101.415 80.117C103.578 88.4468 106.152 96.6888 108.742 104.916C110.107 109.249 110.588 113.707 111.091 118.125C112.015 126.245 116.317 133.206 119.35 140.594C120.64 143.738 122.678 146.615 124.376 149.614C125.116 153.194 125.856 156.773 126.596 160.353C127.456 156.481 126.135 152.914 125.17 149.3ZM69.8003 173.82C69.8003 173.721 69.7997 173.622 69.7997 173.524C70.5175 173.08 71.2352 172.637 72.0411 172.14C69.8344 171.316 67.7004 171.069 65.4465 171.016C61.3178 170.917 57.1943 170.549 53.0752 170.218C52.0955 170.14 51.0657 169.931 50.3639 169.133C50.3059 169.067 50.2144 169.027 50.1383 168.975C50.2542 168.891 50.3701 168.808 50.4861 168.724C54.7273 170.051 59.2123 169.415 63.5911 170.02C59.9545 167.249 55.1507 167.195 51.0822 165.45C51.1976 164.726 52.0915 165.163 52.5348 164.451C49.8126 163.966 48.8409 160.942 45.8766 160.783C45.7175 160.767 45.5765 160.712 45.4538 160.616C45.6152 160.257 45.7772 159.897 45.9385 159.537C49.878 161.56 53.7202 163.773 57.7819 165.555C62.5169 167.632 67.4418 169.336 72.2889 171.192C73.0709 171.491 73.8074 171.307 74.374 170.763C80.0291 165.333 87.5704 165.463 94.8219 164.745C95.7846 164.65 95.7886 164.687 95.9699 163.796C96.1642 163.647 96.358 163.497 96.5524 163.347C98.9961 165.201 102.011 164.933 104.795 164.95C110.944 164.989 116.662 166.373 122.147 168.821C122.41 169.32 122.88 169.171 123.311 169.142C123.614 169.942 124.152 170.549 125.126 170.292C126.064 170.044 125.522 169.258 125.493 168.742C125.299 165.266 125.128 161.784 124.763 158.322C124.59 156.678 123.73 155.187 122.655 153.844C122.673 153.601 122.691 153.358 122.709 153.115C123.349 153.265 124.03 153.165 123.615 152.434C119.828 145.766 116.395 138.948 113.384 131.945C113.21 131.539 113.048 131.082 112.734 130.781C104.135 122.561 94.9668 115.292 82.5779 112.213C77.5672 110.967 72.8572 108.526 68.3608 105.948C65.0738 104.064 63.0978 100.997 60.7439 98.3456C57.4909 94.6821 53.8311 92.3688 48.5891 92.705C46.7069 92.8255 44.8269 92.9767 42.947 93.1247C42.8839 93.1295 42.772 93.2717 42.7873 93.3246C42.826 93.4625 42.9225 93.5868 42.9959 93.7168C42.814 93.8717 42.6322 94.0271 42.4503 94.182C38.8803 93.1676 35.1329 93.2289 31.6253 93.8003C30.3757 94.0039 29.7409 93.7861 28.8157 93.4932C27.4927 93.0745 21.7898 94.5367 21.1266 95.5813C20.4657 96.6227 20.8811 97.8376 21.1874 98.898C23.006 105.191 23.1316 111.546 22.016 117.926C21.3676 121.636 21.6489 125.334 22.0546 129C22.4547 132.611 24.5205 135.725 26.2061 138.955C28.7396 143.81 33.9037 146.488 37.052 150.771C38.9388 153.338 41.5854 155.185 43.6744 157.537C43.4267 158.043 42.8817 158.052 42.4145 158.193C38.8132 155.17 35.7546 151.694 32.4153 147.66C32.4369 152.117 29.9489 155.391 28.8674 159.093C28.5298 160.248 28.5515 161.542 28.6628 162.752C28.9333 165.698 28.2872 168.62 28.7242 171.595C29.2493 175.17 29.8568 178.801 31.5702 181.934C36.2877 190.56 37.7635 199.939 39.7066 209.231C40.5965 213.486 42.6072 217.038 46.6671 219.478C43.5778 209.307 44.407 199.247 48.0901 189.737C50.1349 184.458 49.1648 180.255 47.1962 175.654C46.8871 174.933 46.6989 174.166 46.4551 173.42C47.0183 173.595 47.5815 173.769 48.1453 173.943C48.7045 175.007 49.2642 176.071 49.8234 177.136C49.5137 179.179 50.8009 179.709 52.6223 179.596C57.1909 179.313 61.7594 179.015 66.3206 178.644C67.7226 178.53 67.855 177.339 68.1664 176.305C67.0753 175.961 66.1893 176.537 65.2425 176.686C62.8989 176.635 60.5523 176.534 58.2422 177.043C55.8832 177.048 53.5242 177.053 51.1652 177.058C51.6431 175.755 52.7354 176.555 53.5299 176.511C58.4582 176.241 63.4131 176.2 68.2511 175.175C68.7881 175.063 70.6112 175.531 69.8003 173.82ZM118.75 267.978C115.651 264.731 112.121 261.851 109.518 258.178C107.43 255.232 106.391 252.061 105.645 248.61C104.782 244.614 103.669 240.517 101.302 237.03C99.4592 234.318 96.1136 232.981 93.0471 231.767C89.4969 230.363 86.6515 228.628 85.2876 225.095C84.2095 222.302 81.7738 220.612 79.0283 219.308C73.1891 216.536 71.0767 211.319 68.5875 206.175C66.1933 201.228 67.4111 196.094 66.8332 190.895C65.6426 191.516 65.5011 192.52 65.342 193.402C64.6265 197.368 63.9877 201.335 63.5456 205.35C62.8443 211.722 65.5261 216.945 69.0013 221.973C73.2453 228.114 76.8591 234.518 80.0177 241.214C81.8976 245.199 82.8052 249.932 86.8339 252.72C91.6258 256.036 95.3589 260.612 101.489 262.404C105.618 263.611 109.358 265.967 113.282 267.79C114.629 268.416 115.981 269.056 117.532 269.141C118.501 269.807 119.631 269.997 120.951 270.329C120.613 268.972 119.334 268.765 118.75 267.978ZM103.465 267.37C102.071 268.729 102.114 270.424 101.969 272.391C104.106 270.927 102.876 268.925 103.465 267.37ZM137.979 285.952C139.337 284.453 139.735 282.896 140.25 281.347C138.887 282.468 137.684 283.714 137.979 285.952ZM139.24 319.754L139.243 319.751C139.169 320.24 139.011 321.106 139.832 320.722C141.22 320.071 142.595 319.218 143.65 318.166C147.86 313.967 150.79 309.118 151.144 303.265C151.236 301.759 151.284 300.115 150.509 298.621C150.271 298.162 150.154 297.346 149.572 297.87C149.147 298.253 148.104 297.779 148.228 298.76C148.389 300.036 147.297 301.212 147.887 302.68C148.411 301.493 148.881 300.427 149.352 299.36C149.571 299.425 149.789 299.49 150.008 299.555C149.155 302.86 148.303 306.166 147.417 309.601C146.505 308.793 147.386 307.821 146.804 307.083C146.123 309.646 145.81 312.287 144.477 314.67C145.208 308.008 147.362 301.536 146.996 294.692C146.222 298.138 145.448 301.584 144.675 305.03C144.548 305.007 144.421 305.014 144.297 305.049C144.194 302.921 144.98 300.917 145.282 298.847C145.39 298.11 146.139 297.106 144.742 296.658C144.748 296.644 144.753 296.63 144.759 296.616L144.761 296.615C144.748 296.591 144.74 296.569 144.729 296.546C144.944 294.932 146.458 293.641 146.239 291.294C145.042 293.286 143.768 294.64 144.729 296.546C144.724 296.58 144.717 296.613 144.713 296.648C144.724 296.651 144.732 296.655 144.742 296.658C143.022 300.486 143.942 304.738 142.533 308.622C142.267 309.354 142.234 310.158 142.094 310.929C141.2 313.916 141.113 317.133 139.171 319.823C140.198 314.937 141.234 310.054 142.244 305.165C142.529 303.784 142.801 302.396 142.95 300.999C143.016 300.382 143.388 299.307 142.324 299.272C141.325 299.239 140.779 300.054 140.808 301.105C140.885 303.937 140.319 306.709 139.691 309.459C139.131 311.911 138.423 314.335 137.357 316.713C138.436 311.698 139.378 306.678 139.635 301.535C138.143 301.494 137.85 302.412 137.754 303.385C137.413 306.809 136.577 310.151 135.654 313.458C134.764 316.649 133.53 319.759 132.446 322.904C135.514 323.266 137.868 322.176 139.24 319.754ZM136.656 302.938C133.838 306.694 134.757 310.655 133.346 313.964C131.865 317.436 130.62 320.966 129.484 324.776C132.102 322.805 136.146 310.562 136.656 302.938ZM118.773 331.055C123.835 329.252 127.973 327.567 129.339 322.527C130.738 317.366 132.931 312.392 133.587 307.052C133.659 306.467 134.315 305.618 132.971 305.455C131.898 305.324 131.764 306.008 131.571 306.722C131.249 307.911 130.871 309.087 130.516 310.268C130.326 309.912 130.136 309.556 129.946 309.201C129.809 307.889 130.922 306.713 130.35 304.949C126.704 313.787 124.467 322.78 118.773 331.055ZM82.6291 321.135C83.5185 327.079 82.4302 333.061 83.7526 339.015C86.893 330.274 88.7229 321.167 92.1157 312.499C92.2606 312.843 92.4055 313.187 92.5504 313.532C92.6243 314.454 91.5178 315.15 91.9696 316.145C91.2842 318.525 89.9357 320.732 89.5686 323.656C91.236 322.742 90.8768 321.365 91.3809 320.409C91.8099 319.595 91.3849 318.24 93.0699 318.307C92.1003 320.907 91.1314 323.507 90.1619 326.107C89.6214 325.909 89.8391 325.184 89.5481 325.07C88.911 324.821 88.9082 325.564 88.803 325.84C88.4427 326.789 88.241 327.791 87.9347 328.937C89.414 328.594 88.9491 327.307 89.6282 326.728C90.0874 328.792 88.9497 330.589 88.5092 332.502C88.0699 332.836 87.7455 331.406 87.3352 332.392C86.5537 334.267 85.8752 336.18 84.8914 338.767C87.0459 336.978 87.4943 335.347 87.5198 333.55C87.5198 333.529 87.6892 333.486 87.7727 333.498C87.8586 333.509 87.9364 333.575 88.0177 333.618C88.1393 333.971 87.7835 334.991 88.7951 334.125C90.9365 332.293 91.7724 329.765 92.8925 327.392C93.9877 325.071 94.648 322.597 95.9403 320.335C97.7538 317.161 100.151 314.642 103.832 313.3C110.427 310.895 116.809 308.044 123.265 305.342C126.672 303.917 130.309 303.068 133.542 301.107C137.326 298.812 140.501 296.139 142.574 292.39C143.371 292.053 143.911 291.504 144.169 290.722C144.689 289.208 146.591 288.125 145.73 286.019C145.272 286.772 144.88 287.414 144.338 288.304C144.035 286.685 144.979 285.587 145.145 284.352C145.261 283.492 146.196 282.391 144.748 281.974C143.24 281.54 143.251 283.006 142.922 283.796C141.915 286.214 141.027 288.674 139.948 291.079C139.763 287.903 141.852 285.145 141.817 281.342C140.179 283.944 139.228 286.326 137.269 288.052C137.123 287.537 136.977 287.022 136.83 286.507C136.165 284.534 135.615 287.355 134.821 286.334C136.236 284.821 137.994 283.275 137.202 280.479C133.465 283.563 133.172 288.131 130.754 291.891C130.432 289.618 132.093 288.069 132.317 286.236C131.564 285.749 131.173 287.023 130.49 286.31C130.72 285.179 132.104 284.938 132.625 284.104C133.205 283.172 135.036 282.404 133.52 280.926C133.703 279.841 132.751 279.894 132.1 279.808C130.74 279.629 130.2 278.861 130.072 277.703C130.957 276.702 130.303 276.544 129.398 276.767C128.396 277.014 127.757 277.993 126.645 278.089C126.636 278.073 126.626 278.059 126.617 278.041C126.607 278.046 126.597 278.049 126.588 278.053C126.71 277.529 127.492 277.225 127.171 276.553C127.578 276.094 127.986 275.635 128.432 275.132C127.695 274.881 126.945 274.625 126.195 274.369C125.708 273.848 125.085 273.757 124.396 273.874C124.001 273.693 123.605 273.512 123.21 273.331C122.472 273.161 121.734 272.991 120.996 272.822C120.744 272.805 120.491 272.787 120.239 272.77C119.491 271.982 118.522 272.283 117.609 272.311C117.383 272.296 117.156 272.281 116.93 272.266C116.786 271.882 116.349 271.619 116.081 271.792C111.475 274.767 106.513 277.249 102.123 280.521C95.1612 285.666 92.4686 293.199 89.2702 300.443C88.7672 301.582 89.0753 302.845 88.7155 304.064C87.8125 307.12 86.8384 310.037 84.663 312.629C82.6251 315.054 82.2114 318.342 82.6291 321.135ZM79.9314 311.41C80.1024 310.96 80.5457 310.099 79.3579 310.191C78.851 310.231 78.8823 309.285 78.443 309.791C78.1031 310.182 77.228 310.95 78.7129 311.148C78.4208 312.135 78.0787 313.112 77.8503 314.112C77.6269 315.088 76.7318 315.919 77.2978 317.837C78.3782 315.227 79.2 313.333 79.9314 311.41ZM79.4864 318.613C77.32 320.306 77.3251 322.569 76.2437 324.301C78.2094 323.075 79.2903 321.367 79.4864 318.613ZM75.5333 313.611C75.9101 312.572 76.4954 311.598 77.3433 309.885C75.6526 311.033 74.6484 311.678 73.6925 312.38C73.2322 312.718 72.3269 312.916 72.8339 313.749C73.1066 314.198 73.4914 314.731 74.1114 314.686C74.7672 314.637 75.2741 314.325 75.5333 313.611ZM73.2163 325.541C74.9502 324.286 74.2296 322.91 74.8911 321.982C73.0924 322.541 73.7329 323.89 73.2163 325.541ZM74.8809 327.313C74.8257 326.876 74.4956 326.654 74.1284 326.733C72.573 327.066 72.2769 328.207 72.0132 329.903C73.4562 329.087 75.1019 329.07 74.8809 327.313ZM71.1046 319.354C72.6122 317.154 72.5412 316.925 69.6088 314.9C69.665 316.726 70.4936 317.948 71.1046 319.354ZM67.8374 327.926C68.5262 326.189 68.009 325.196 67.5197 323.452C66.6831 325.342 67.2378 326.293 67.8374 327.926ZM66.761 317.531C67.1134 318.976 68.2216 319.154 69.7787 318.696C69.0382 317.854 69.4496 316.352 67.8743 316.244C67.3452 316.209 66.5911 316.834 66.761 317.531ZM63.5831 333.101C64.3241 333.193 63.9053 332.197 64.5139 332.105C64.4958 332.133 64.481 332.162 64.46 332.19C64.46 332.19 64.5435 332.097 64.5469 332.095C64.5333 332.096 64.5265 332.103 64.5134 332.105C65.1402 331.133 64.3401 330.128 64.6612 328.933C63.1711 329.647 63.3006 330.865 63.0637 331.863C62.967 332.273 62.7329 332.994 63.5831 333.101ZM62.2664 324.234C62.4675 325.267 63.0511 325.7 64.132 325.647C65.2709 323.392 63.7587 321.462 63.2279 319.414C63.2159 319.368 62.8977 319.375 62.7249 319.388C62.6658 319.392 62.5982 319.482 62.5641 319.547C62.5238 319.623 62.5158 319.713 62.4937 319.797C61.8418 321.252 61.9725 322.726 62.2664 324.234ZM60.8183 330.061C61.3599 329.842 61.4906 329.829 61.5201 329.772C62.0134 328.806 61.9765 327.811 61.6327 326.822C61.6162 326.774 61.0462 326.77 60.9013 326.902C59.7789 327.934 60.9058 328.916 60.8183 330.061ZM59.2987 332.339C60.766 330.695 59.9761 329.453 59.314 328.209C59.0356 329.466 58.7474 330.724 59.2987 332.339ZM57.7495 323.112C57.4159 321.328 57.0783 319.544 56.7118 317.596C58.2467 317.974 58.2837 319.039 58.3383 319.9C58.4928 322.329 59.3998 320.763 60.1108 320.292C60.1096 320.301 60.1068 320.31 60.1057 320.318L60.1778 320.247C60.1778 320.247 60.1057 320.318 60.1051 320.32C60.1244 320.329 60.1386 320.34 60.1574 320.35C59.8869 321.745 58.9571 323.045 59.4402 324.545C59.5817 324.983 59.3373 325.774 60.2142 325.661C60.7228 325.596 61.6213 325.023 61.5997 324.976C60.9138 323.488 62.2385 321.425 60.1574 320.35C60.1642 320.316 60.1721 320.281 60.1778 320.246C60.1557 320.259 60.1329 320.276 60.1108 320.291C60.2278 319.459 61.465 318.552 60.0085 317.826C58.5963 317.122 57.0118 316.976 55.4382 316.891C55.3456 316.886 55.1126 317.333 55.1365 317.552C55.374 319.723 55.6479 321.89 55.9224 324.057C55.9969 324.645 56.4072 324.725 56.9272 324.564C57.6961 324.327 57.8768 323.79 57.7495 323.112ZM54.9194 334.725C57.9547 334.513 57.9547 334.513 56.1054 331.028C54.5659 332.115 54.9734 333.459 54.9194 334.725ZM52.9088 328.658C55.4059 324.601 54.1061 320.762 53.7004 317.064C53.5725 315.9 51.5585 316.276 50.4685 316.215C49.2819 316.148 49.5683 317.399 49.7797 318.018C50.5429 320.25 49.9109 322.916 52.5814 324.6C53.6515 325.275 52.4751 326.926 52.9088 328.658ZM49.907 330.742C51.3976 329.115 51.2578 327.71 50.7981 325.969C49.2676 327.415 50.1013 328.922 49.907 330.742ZM52.3546 331.46C50.2718 332.894 49.7422 334.446 49.4313 336.129C51.1669 335.248 51.9705 333.811 52.3546 331.46ZM48.8909 328.328C46.583 329.731 47.1604 331.153 47.9214 332.83C49.3 331.488 48.5368 329.992 48.8909 328.328ZM47.4877 336.689C47.4662 335.004 45.988 333.703 46.7632 331.685C44.4212 333.005 46.1852 334.896 45.119 336.262C44.7525 336.732 46.5273 336.667 47.4877 336.689ZM42.743 303.559C43.6529 305.646 44.4979 307.586 45.6356 310.196C42.6481 308.347 43.3948 305.209 40.9182 303.814C42.2043 307.31 43.4903 310.806 44.8593 314.529C47.6304 310.388 47.4389 305.885 42.743 303.559ZM44.6008 328.746C44.9565 326.565 44.8531 324.839 44.5309 322.393C42.9982 324.867 43.4034 326.589 44.6008 328.746ZM27.3853 353.151C28.0081 349.593 25.3979 347.447 23.5084 344.986C25.5054 347.4 25.669 350.615 27.3853 353.151ZM25.4786 359.795C25.8531 356.28 22.9719 352.019 18.9273 349.652C21.7284 352.422 23.3862 355.895 25.4786 359.795ZM15.4555 343.499C15.0043 344.633 14.6469 345.845 16.4182 346.795C19.6871 348.55 22.9457 350.415 25.5821 354.107C24.8836 348.871 23.4709 344.966 18.4721 343.157C17.3781 342.761 16.0909 341.902 15.4555 343.499ZM16.7246 340.985C16.5552 341.119 16.3569 341.479 16.424 341.565C16.6223 341.82 17.0042 342.209 17.2122 342.161C19.466 341.643 20.9487 342.939 22.7946 343.783C22.3399 343.038 21.9296 342.266 21.4221 341.554C20.4316 340.165 18.1004 339.893 16.7246 340.985ZM22.1416 337.664C21.8506 336.998 21.3636 336.948 20.8038 337.205C19.9423 337.6 20.5941 338.063 20.8231 338.469C22.4053 341.279 24.5807 343.669 27.1807 345.75C25.0189 343.278 23.4066 340.562 22.1416 337.664ZM37.2464 326.321C37.0879 325.889 37.1077 324.834 36.0797 325.301C35.4261 325.597 34.8641 326.167 35.3625 327.014C36.6099 329.135 37.846 331.262 39.0865 333.387C39.2474 333.323 39.4077 333.258 39.5685 333.194C38.8053 330.899 38.0818 328.592 37.2464 326.321ZM37.821 320.886C37.3584 323.787 38.9593 325.214 40.0271 326.822C40.0248 324.852 38.8649 323.275 37.821 320.886ZM42.1559 335.828C42.5844 334.332 41.6752 333.321 41.0739 331.825C40.4334 333.709 41.1296 334.837 42.1559 335.828ZM38.0625 334.183C37.8676 336.42 39.519 337.967 39.8657 339.997C40.3499 338.036 40.0709 337.146 38.0625 334.183ZM38.2029 339.745C38.3893 339.677 38.5751 339.61 38.7615 339.543C37.3254 335.686 35.8893 331.829 34.389 327.797C32.9194 329.033 32.409 329.641 33.8377 331.397C35.8063 333.818 36.794 336.929 38.2029 339.745ZM35.8296 343.033C36.4775 341.7 36.3331 340.465 35.9541 339.195C35.2056 336.689 33.5013 334.527 33.0165 331.926C32.9307 331.467 32.575 330.768 31.98 330.903C31.5901 330.991 30.9894 331.854 31.1093 332.073C33.0353 335.579 33.9309 339.465 35.8296 343.033ZM33.9991 347.258C34.0798 347.38 34.2935 347.426 34.6942 347.64C35.3761 346.002 34.8476 344.605 34.3674 343.363C33.0677 340 31.1491 336.855 30.2734 333.334C30.1262 332.743 29.9006 332.098 28.9589 332.489C28.3724 332.733 27.5257 332.904 27.99 333.726C30.4388 338.069 31.2139 343.05 33.9991 347.258ZM30.8803 347.601C31.1145 343.006 28.7526 339.042 27.3603 334.833C26.8568 333.311 26.0373 334.375 25.5309 334.732C24.5949 335.391 22.3246 335.624 23.9851 337.456C26.7721 340.529 28.7418 344.055 30.8803 347.601ZM26.5652 353.89C26.6294 355.158 26.6869 356.293 26.7602 357.739C28.6941 355.413 28.6941 355.413 26.5652 353.89Z" fill="#E55871" fill-opacity="0.4"/>
</svg>
